# 3ds Max Wavefront OBJ Exporter v0.97b - (c)2007 guruware
# File Created: 10.03.2017 16:18:39

mtllib Building_Gift Shop.mtl

#
# object Building_Gift_Shop
#

v  -229.1254 258.3753 137.2375
v  -229.1254 258.3753 131.4027
v  -229.1254 199.1931 131.4026
v  -229.1254 199.1931 137.2375
v  212.0880 258.3753 131.4027
v  212.0880 199.1931 131.4026
v  212.0880 258.3753 137.2375
v  212.0880 199.1931 137.2375
v  -224.8544 148.6380 193.9884
v  -224.8544 169.5949 131.9216
v  -224.8544 139.8318 131.9216
v  -224.8544 139.8318 193.9884
v  207.8170 169.5949 131.9216
v  207.8170 139.8318 131.9216
v  207.8170 148.6380 193.9884
v  207.8170 139.8318 193.9884
v  -169.6527 122.5250 138.2514
v  -169.6527 122.5250 134.4066
v  -169.6527 34.1064 134.4066
v  -169.6527 34.1064 138.2514
v  -104.9675 122.5250 134.4066
v  -104.9675 34.1064 134.4066
v  -104.9675 122.5250 138.2514
v  -104.9675 34.1064 138.2514
v  87.7173 122.5250 138.2514
v  87.7173 122.5250 134.4066
v  87.7173 34.1064 134.4066
v  87.7173 34.1064 138.2514
v  152.4025 122.5250 134.4066
v  152.4025 34.1064 134.4066
v  152.4025 122.5250 138.2514
v  152.4025 34.1064 138.2514
v  -227.1882 14.6531 137.3686
v  -227.1882 14.6532 -220.4541
v  -227.1882 2.5091 -220.4541
v  -227.1882 2.5090 137.3686
v  210.1507 14.6532 -220.4541
v  210.1507 2.5091 -220.4541
v  210.1507 14.6531 137.3686
v  210.1507 2.5090 137.3686
v  -51.9784 134.2259 140.0823
v  -51.9784 134.2258 127.8890
v  -51.9784 2.8147 127.8889
v  -51.9784 2.8147 140.0822
v  34.9409 134.2258 127.8890
v  34.9409 2.8147 127.8889
v  34.9409 134.2259 140.0823
v  34.9409 2.8147 140.0822
v  28.1299 2.8027 140.0822
v  -45.1673 2.8027 140.0822
v  28.1299 2.8027 137.9210
v  -45.1673 2.8027 137.9210
v  -45.1673 127.5364 140.0823
v  28.1299 127.5364 140.0823
v  28.1299 127.5364 137.9210
v  -45.1673 127.5364 137.9210
v  -225.0541 177.1688 135.6226
v  -225.0541 177.1689 -218.7081
v  -225.0541 2.5994 -218.7081
v  -225.0541 2.5994 135.6226
v  208.0167 177.1689 -218.7081
v  208.0167 2.5994 -218.7081
v  208.0167 177.1688 135.6226
v  208.0167 2.5994 135.6226
v  212.3235 177.1688 139.1464
v  -229.3609 177.1688 139.1464
v  212.3235 199.6566 139.1464
v  -229.3609 199.6566 139.1464
v  212.3235 177.1689 -222.2318
v  -229.3609 177.1689 -222.2318
v  186.9988 199.6566 118.4262
v  -204.0362 199.6566 118.4262
v  212.3235 199.6566 -222.2318
v  -229.3609 199.6566 -222.2318
v  186.9988 187.8474 118.4262
v  -204.0362 187.8474 118.4262
v  186.9988 199.6566 -201.5116
v  -204.0362 199.6566 -201.5116
v  186.9988 187.8475 -201.5116
v  -204.0362 187.8475 -201.5116
# 80 vertices

vn -1.0000 0.0000 -0.0000
vn 0.0000 0.0000 -1.0000
vn 1.0000 0.0000 -0.0000
vn 0.0000 -0.0000 1.0000
vn 0.0000 -1.0000 -0.0000
vn 0.0000 1.0000 0.0000
vn 0.0000 0.9474 0.3199
vn 0.0000 1.0000 -0.0000
vn -0.0000 -1.0000 -0.0000
vn -0.0000 1.0000 0.0000
vn 0.0000 -0.0000 -1.0000
# 11 vertex normals

vt 0.2675 0.4535 0.0000
vt 0.2922 0.4736 0.0000
vt 0.2906 0.4767 0.0000
vt 0.2717 0.4990 0.0000
vt 0.2952 0.4763 0.0000
vt 0.2933 0.4785 0.0000
vt 0.3174 0.4535 0.0000
vt 0.3146 0.4990 0.0000
vt 0.9595 0.7259 0.0000
vt 0.0354 0.7259 0.0000
vt 0.0354 0.6020 0.0000
vt 0.9595 0.6020 0.0000
vt 0.6728 0.4264 0.0000
vt 0.6728 0.4423 0.0000
vt 0.6728 0.4197 0.0000
vt 0.9729 0.4423 0.0000
vt 0.9729 0.4197 0.0000
vt 0.9729 0.4264 0.0000
vt 0.4992 0.2303 0.0000
vt 0.5085 0.2208 0.0000
vt 0.5097 0.2216 0.0000
vt 0.5189 0.2303 0.0000
vt 0.5095 0.2198 0.0000
vt 0.5107 0.2205 0.0000
vt 0.5003 0.2110 0.0000
vt 0.5200 0.2110 0.0000
vt 0.5691 0.2462 0.0000
vt 0.4010 0.2462 0.0000
vt 0.4010 0.0165 0.0000
vt 0.5691 0.0165 0.0000
vt 0.4992 0.1917 0.0000
vt 0.5097 0.2002 0.0000
vt 0.5090 0.2016 0.0000
vt 0.5010 0.2110 0.0000
vt 0.5110 0.2014 0.0000
vt 0.5102 0.2023 0.0000
vt 0.5204 0.1917 0.0000
vt 0.5192 0.2110 0.0000
vt 0.5675 0.2453 0.0000
vt 0.4013 0.2453 0.0000
vt 0.4013 0.0181 0.0000
vt 0.5675 0.0181 0.0000
vt 0.4086 0.8793 0.0000
vt 0.4586 0.8793 0.0000
vt 0.4586 0.9293 0.0000
vt 0.4086 0.9293 0.0000
vt 0.7007 0.8567 0.0000
vt 0.7016 0.8570 0.0000
vt 0.7001 0.8560 0.0000
vt 0.6995 0.8550 0.0000
vt 0.6998 0.8567 0.0000
vt 0.6989 0.8560 0.0000
vt 0.6987 0.8572 0.0000
vt 0.6968 0.8551 0.0000
vt 0.6950 0.8544 0.0000
vt 0.6994 0.8550 0.0000
vt 0.6948 0.8544 0.0000
vt 0.6995 0.8544 0.0000
vt 0.7006 0.8566 0.0000
vt 0.6986 0.8572 0.0000
vt 0.9758 0.3096 0.0000
vt 0.8029 0.3096 0.0000
vt 0.8029 0.0152 0.0000
vt 0.9758 0.0152 0.0000
vt 0.7009 0.8568 0.0000
vt 0.6983 0.8577 0.0000
vt 0.3323 0.2230 0.0000
vt 0.3903 0.2230 0.0000
vt 0.3903 0.2810 0.0000
vt 0.3323 0.2810 0.0000
vt 0.3870 0.8753 0.0000
vt 0.4450 0.8753 0.0000
vt 0.4450 0.9333 0.0000
vt 0.3870 0.9333 0.0000
vt 0.6194 0.1624 0.0000
vt 0.6774 0.1624 0.0000
vt 0.6774 0.2204 0.0000
vt 0.6194 0.2204 0.0000
# 78 texture coords

g Building_Gift_Shop
usemtl Building_Gift_Shop
s off
f 1/1/1 2/2/1 3/3/1 4/4/1 
f 2/2/2 5/5/2 6/6/2 3/3/2 
f 5/5/3 7/7/3 8/8/3 6/6/3 
f 7/9/4 1/10/4 4/11/4 8/12/4 
f 4/4/5 3/3/5 6/6/5 8/8/5 
f 7/7/6 5/5/6 2/2/6 1/1/6 
f 9/13/1 10/14/1 11/15/1 12/15/1 
f 10/14/2 13/16/2 14/17/2 11/15/2 
f 13/16/3 15/18/3 16/17/3 14/17/3 
f 15/18/4 9/13/4 12/15/4 16/17/4 
f 12/15/5 11/15/5 14/17/5 16/17/5 
f 15/18/7 13/16/7 10/14/7 9/13/7 
f 17/19/1 18/20/1 19/21/1 20/22/1 
f 18/20/2 21/23/2 22/24/2 19/21/2 
f 21/23/3 23/25/3 24/26/3 22/24/3 
f 23/27/4 17/28/4 20/29/4 24/30/4 
f 20/22/5 19/21/5 22/24/5 24/26/5 
f 23/25/6 21/23/6 18/20/6 17/19/6 
f 25/31/1 26/32/1 27/33/1 28/34/1 
f 26/32/2 29/35/2 30/36/2 27/33/2 
f 29/35/3 31/37/3 32/38/3 30/36/3 
f 31/39/4 25/40/4 28/41/4 32/42/4 
f 28/34/5 27/33/5 30/36/5 32/38/5 
f 31/37/6 29/35/6 26/32/6 25/31/6 
f 33/43/1 34/44/1 35/45/1 36/46/1 
f 34/43/2 37/44/2 38/45/2 35/46/2 
f 37/43/3 39/44/3 40/45/3 38/46/3 
f 39/43/4 33/44/4 36/45/4 40/46/4 
f 36/43/5 35/44/5 38/45/5 40/46/5 
f 39/43/6 37/44/6 34/45/6 33/46/6 
f 41/47/1 42/48/1 43/49/1 44/50/1 
f 42/48/2 45/51/2 46/52/2 43/49/2 
f 45/51/3 47/53/3 48/54/3 46/52/3 
f 44/50/2 48/54/2 49/55/2 50/56/2 
f 44/50/5 43/49/5 46/52/5 48/54/5 
f 47/53/8 45/51/8 42/48/8 41/47/8 
f 50/56/6 49/55/6 51/57/6 52/58/6 
s 1
f 47/53/4 41/47/4 53/59/4 54/60/4 
f 48/54/4 47/53/4 54/60/4 49/55/4 
f 41/47/4 44/50/4 50/56/4 53/59/4 
s off
f 55/61/4 56/62/4 52/63/4 51/64/4 
f 54/60/5 53/59/5 56/65/5 55/66/5 
f 49/55/1 54/60/1 55/66/1 51/57/1 
f 53/59/3 50/56/3 52/58/3 56/65/3 
f 57/67/1 58/68/1 59/69/1 60/70/1 
f 58/67/2 61/68/2 62/69/2 59/70/2 
f 61/67/3 63/68/3 64/69/3 62/70/3 
f 63/67/4 57/68/4 60/69/4 64/70/4 
f 60/67/5 59/68/5 62/69/5 64/70/5 
f 57/71/5 63/72/5 65/73/5 66/74/5 
f 66/71/4 65/72/4 67/73/4 68/74/4 
f 63/71/5 61/72/5 69/73/5 65/74/5 
f 61/71/5 58/72/5 70/73/5 69/74/5 
f 58/71/9 57/72/9 66/73/9 70/74/9 
s 1
f 68/71/6 67/72/10 71/73/10 72/74/6 
s off
f 65/71/3 69/72/3 73/73/3 67/74/3 
f 69/71/2 70/72/2 74/73/2 73/74/2 
f 70/71/1 66/72/1 68/73/1 74/74/1 
f 72/71/11 71/72/11 75/73/11 76/74/11 
s 1
f 67/71/10 73/72/6 77/73/6 71/74/10 
f 73/71/6 74/72/10 78/73/10 77/74/6 
f 74/71/10 68/72/6 72/73/6 78/74/10 
s off
f 75/75/6 79/76/6 80/77/6 76/78/6 
f 71/71/1 77/72/1 79/73/1 75/74/1 
f 77/71/4 78/72/4 80/73/4 79/74/4 
f 78/71/3 72/72/3 76/73/3 80/74/3 
# 66 polygons

