# 3ds Max Wavefront OBJ Exporter v0.97b - (c)2007 guruware
# File Created: 10.03.2017 16:02:31

mtllib Building_Chicken Shop.mtl

#
# object Building_Chicken_Shop
#

v  -265.6115 213.6142 50.2427
v  -265.6115 213.6142 44.7375
v  -265.6115 164.3990 44.7375
v  -265.6115 164.3990 50.2427
v  125.0618 213.6142 44.7375
v  125.0618 164.3990 44.7375
v  125.0618 213.6142 50.2427
v  125.0618 164.3990 50.2427
v  -288.9443 194.4630 46.5491
v  -288.9443 194.4631 -311.2736
v  -288.9443 182.3190 -311.2736
v  -288.9443 182.3189 46.5491
v  148.3947 194.4631 -311.2736
v  148.3947 182.3190 -311.2736
v  148.3947 194.4630 46.5491
v  148.3947 182.3189 46.5491
v  -238.1722 332.1266 66.5229
v  -238.1722 344.1843 43.7595
v  -238.1722 327.0600 43.7595
v  -238.1722 327.0600 66.5229
v  -159.9527 344.1843 43.7595
v  -159.9527 327.0600 43.7595
v  -159.9527 332.1266 66.5229
v  -159.9527 327.0600 66.5229
v  19.1844 332.1266 66.5229
v  19.1844 344.1842 43.7595
v  19.1844 327.0599 43.7595
v  19.1844 327.0599 66.5229
v  97.4039 344.1842 43.7595
v  97.4039 327.0599 43.7595
v  97.4039 332.1266 66.5229
v  97.4039 327.0599 66.5229
v  -109.3846 332.1266 66.5229
v  -109.3846 344.1843 43.7595
v  -109.3846 327.0600 43.7595
v  -109.3846 327.0600 66.5229
v  -31.1651 344.1842 43.7595
v  -31.1651 327.0599 43.7595
v  -31.1651 332.1266 66.5229
v  -31.1651 327.0599 66.5229
v  -267.3541 148.6380 80.6664
v  -267.3541 169.5949 41.1021
v  -267.3541 139.8318 41.1021
v  -267.3541 139.8318 80.6664
v  126.8045 169.5948 41.1021
v  126.8045 139.8317 41.1021
v  126.8045 148.6379 80.6664
v  126.8045 139.8317 80.6664
v  -102.4447 317.8958 47.4319
v  -102.4447 317.8958 43.5871
v  -102.4447 229.4772 43.5871
v  -102.4447 229.4772 47.4319
v  -37.7594 317.8958 43.5871
v  -37.7594 229.4772 43.5871
v  -37.7594 317.8958 47.4319
v  -37.7594 229.4772 47.4319
v  25.9612 317.8958 47.4319
v  25.9612 317.8958 43.5871
v  25.9612 229.4772 43.5871
v  25.9612 229.4772 47.4319
v  90.6464 317.8958 43.5871
v  90.6464 229.4772 43.5871
v  90.6464 317.8958 47.4319
v  90.6464 229.4772 47.4319
v  -231.4088 317.8958 47.4319
v  -231.4088 317.8958 43.5871
v  -231.4088 229.4772 43.5871
v  -231.4088 229.4772 47.4319
v  -166.7236 317.8958 43.5871
v  -166.7236 229.4772 43.5871
v  -166.7236 317.8958 47.4319
v  -166.7236 229.4772 47.4319
v  -231.4088 122.5250 47.4319
v  -231.4088 122.5250 43.5871
v  -231.4088 34.1064 43.5870
v  -231.4088 34.1064 47.4319
v  -166.7236 122.5250 43.5871
v  -166.7236 34.1064 43.5870
v  -166.7236 122.5250 47.4319
v  -166.7236 34.1064 47.4319
v  25.9612 122.5250 47.4319
v  25.9612 122.5250 43.5871
v  25.9612 34.1064 43.5870
v  25.9612 34.1064 47.4319
v  90.6464 122.5250 43.5871
v  90.6464 34.1064 43.5870
v  90.6464 122.5250 47.4319
v  90.6464 34.1064 47.4319
v  -288.9443 14.6531 46.5491
v  -288.9443 14.6532 -311.2736
v  -288.9443 2.5090 -311.2736
v  -288.9443 2.5090 46.5491
v  148.3947 14.6532 -311.2736
v  148.3947 2.5090 -311.2736
v  148.3947 14.6531 46.5491
v  148.3947 2.5090 46.5491
v  -113.7345 134.2258 49.2627
v  -113.7345 134.2258 37.0694
v  -113.7345 2.8147 37.0694
v  -113.7345 2.8147 49.2627
v  -26.8152 134.2258 37.0694
v  -26.8152 2.8147 37.0694
v  -26.8152 134.2258 49.2627
v  -26.8152 2.8147 49.2627
v  -33.6262 2.8027 49.2627
v  -106.9234 2.8027 49.2627
v  -33.6262 2.8027 47.1015
v  -106.9234 2.8027 47.1015
v  -106.9234 127.5364 49.2627
v  -33.6262 127.5364 49.2627
v  -33.6262 127.5364 47.1015
v  -106.9234 127.5364 47.1015
v  -286.8102 364.1906 44.8031
v  -286.8102 364.1906 -309.5276
v  -286.8102 2.5994 -309.5276
v  -286.8102 2.5993 44.8031
v  146.2606 364.1906 -309.5276
v  146.2606 2.5994 -309.5276
v  146.2606 364.1906 44.8031
v  146.2606 2.5993 44.8031
v  150.5674 364.1906 48.3269
v  -291.1171 364.1906 48.3269
v  150.5674 386.6783 48.3269
v  -291.1171 386.6783 48.3269
v  150.5674 364.1906 -313.0514
v  -291.1171 364.1906 -313.0514
v  125.2427 386.6783 27.6067
v  -265.7924 386.6783 27.6067
v  150.5674 386.6783 -313.0514
v  -291.1171 386.6783 -313.0514
v  125.2427 374.8691 27.6067
v  -265.7924 374.8691 27.6067
v  125.2427 386.6783 -292.3311
v  -265.7924 386.6783 -292.3311
v  125.2427 374.8692 -292.3311
v  -265.7924 374.8692 -292.3311
# 136 vertices

vn -1.0000 0.0000 -0.0000
vn 0.0000 0.0000 -1.0000
vn 1.0000 0.0000 -0.0000
vn 0.0000 -0.0000 1.0000
vn 0.0000 -1.0000 0.0000
vn 0.0000 1.0000 0.0000
vn 0.0000 -1.0000 -0.0000
vn 0.0000 0.8837 0.4681
vn -0.0000 -1.0000 -0.0000
# 9 vertex normals

vt 0.0000 0.0000 0.0000
vt 0.9890 0.7250 0.0000
vt 0.0067 0.7250 0.0000
vt 0.0067 0.6013 0.0000
vt 0.9890 0.6013 0.0000
vt 0.4711 0.8734 0.0000
vt 0.5211 0.8734 0.0000
vt 0.5211 0.9234 0.0000
vt 0.4711 0.9234 0.0000
vt 0.7664 0.4021 0.0000
vt 0.8164 0.4021 0.0000
vt 0.8164 0.4521 0.0000
vt 0.7664 0.4521 0.0000
vt 0.4022 0.2439 0.0000
vt 0.4022 0.0181 0.0000
vt 0.5673 0.2439 0.0000
vt 0.5673 0.0181 0.0000
vt 0.4022 0.0182 0.0000
vt 0.5673 0.0182 0.0000
vt 0.4022 0.2440 0.0000
vt 0.4022 0.0183 0.0000
vt 0.5673 0.2440 0.0000
vt 0.5673 0.0183 0.0000
vt 0.4013 0.2452 0.0000
vt 0.4013 0.0171 0.0000
vt 0.5682 0.2452 0.0000
vt 0.5682 0.0171 0.0000
vt 0.4019 0.2445 0.0000
vt 0.4019 0.0176 0.0000
vt 0.5679 0.2445 0.0000
vt 0.5679 0.0176 0.0000
vt 0.4340 0.8813 0.0000
vt 0.4840 0.8813 0.0000
vt 0.4840 0.9312 0.0000
vt 0.4340 0.9312 0.0000
vt 0.4210 0.9004 0.0000
vt 0.4273 0.9027 0.0000
vt 0.4163 0.8957 0.0000
vt 0.4123 0.8880 0.0000
vt 0.4140 0.9004 0.0000
vt 0.4080 0.8952 0.0000
vt 0.4062 0.9039 0.0000
vt 0.3920 0.8886 0.0000
vt 0.3785 0.8839 0.0000
vt 0.4111 0.8877 0.0000
vt 0.3773 0.8832 0.0000
vt 0.4123 0.8832 0.0000
vt 0.4203 0.9001 0.0000
vt 0.4052 0.9039 0.0000
vt 0.9752 0.3079 0.0000
vt 0.8043 0.3079 0.0000
vt 0.8043 0.0171 0.0000
vt 0.9752 0.0171 0.0000
vt 0.4223 0.9009 0.0000
vt 0.4033 0.9079 0.0000
vt 0.2348 0.1996 0.0000
vt 0.2848 0.1996 0.0000
vt 0.2848 0.2496 0.0000
vt 0.2348 0.2496 0.0000
vt 0.2895 0.8910 0.0000
vt 0.3395 0.8910 0.0000
vt 0.3395 0.9410 0.0000
vt 0.2895 0.9410 0.0000
vt 0.6684 0.1527 0.0000
vt 0.7184 0.1527 0.0000
vt 0.7184 0.2027 0.0000
vt 0.6684 0.2027 0.0000
# 67 texture coords

g Building_Chicken_Shop
usemtl Building_Chicken_Shop
s off
f 1/1/1 2/1/1 3/1/1 4/1/1 
f 2/1/2 5/1/2 6/1/2 3/1/2 
f 5/1/3 7/1/3 8/1/3 6/1/3 
f 7/2/4 1/3/4 4/4/4 8/5/4 
f 4/1/5 3/1/5 6/1/5 8/1/5 
f 7/1/6 5/1/6 2/1/6 1/1/6 
f 9/6/1 10/7/1 11/8/1 12/9/1 
f 10/6/2 13/7/2 14/8/2 11/9/2 
f 13/6/3 15/7/3 16/8/3 14/9/3 
f 15/6/4 9/7/4 12/8/4 16/9/4 
f 12/6/7 11/7/7 14/8/7 16/9/7 
f 15/6/6 13/7/6 10/8/6 9/9/6 
f 17/10/1 18/11/1 19/12/1 20/13/1 
f 18/10/2 21/11/2 22/12/2 19/13/2 
f 21/10/3 23/11/3 24/12/3 22/13/3 
f 23/10/4 17/11/4 20/12/4 24/13/4 
f 20/10/7 19/11/7 22/12/7 24/13/7 
f 23/10/8 21/11/8 18/12/8 17/13/8 
f 25/10/1 26/11/1 27/12/1 28/13/1 
f 26/10/2 29/11/2 30/12/2 27/13/2 
f 29/10/3 31/11/3 32/12/3 30/13/3 
f 31/10/4 25/11/4 28/12/4 32/13/4 
f 28/10/9 27/11/9 30/12/9 32/13/9 
f 31/10/8 29/11/8 26/12/8 25/13/8 
f 33/10/1 34/11/1 35/12/1 36/13/1 
f 34/10/2 37/11/2 38/12/2 35/13/2 
f 37/10/3 39/11/3 40/12/3 38/13/3 
f 39/10/4 33/11/4 36/12/4 40/13/4 
f 36/10/9 35/11/9 38/12/9 40/13/9 
f 39/10/8 37/11/8 34/12/8 33/13/8 
f 41/10/1 42/11/1 43/12/1 44/13/1 
f 42/10/2 45/11/2 46/12/2 43/13/2 
f 45/10/3 47/11/3 48/12/3 46/13/3 
f 47/10/4 41/11/4 44/12/4 48/13/4 
f 44/10/9 43/11/9 46/12/9 48/13/9 
f 47/10/8 45/11/8 42/12/8 41/13/8 
f 49/14/1 50/14/1 51/15/1 52/15/1 
f 50/14/2 53/16/2 54/17/2 51/15/2 
f 53/16/3 55/16/3 56/17/3 54/17/3 
f 55/16/4 49/14/4 52/15/4 56/17/4 
f 52/15/7 51/15/7 54/17/7 56/17/7 
f 55/16/6 53/16/6 50/14/6 49/14/6 
f 57/14/1 58/14/1 59/18/1 60/18/1 
f 58/14/2 61/16/2 62/19/2 59/18/2 
f 61/16/3 63/16/3 64/19/3 62/19/3 
f 63/16/4 57/14/4 60/18/4 64/19/4 
f 60/18/7 59/18/7 62/19/7 64/19/7 
f 63/16/6 61/16/6 58/14/6 57/14/6 
f 65/20/1 66/20/1 67/21/1 68/21/1 
f 66/20/2 69/22/2 70/23/2 67/21/2 
f 69/22/3 71/22/3 72/23/3 70/23/3 
f 71/22/4 65/20/4 68/21/4 72/23/4 
f 68/21/7 67/21/7 70/23/7 72/23/7 
f 71/22/6 69/22/6 66/20/6 65/20/6 
f 73/24/1 74/24/1 75/25/1 76/25/1 
f 74/24/2 77/26/2 78/27/2 75/25/2 
f 77/26/3 79/26/3 80/27/3 78/27/3 
f 79/26/4 73/24/4 76/25/4 80/27/4 
f 76/25/7 75/25/7 78/27/7 80/27/7 
f 79/26/6 77/26/6 74/24/6 73/24/6 
f 81/28/1 82/28/1 83/29/1 84/29/1 
f 82/28/2 85/30/2 86/31/2 83/29/2 
f 85/30/3 87/30/3 88/31/3 86/31/3 
f 87/30/4 81/28/4 84/29/4 88/31/4 
f 84/29/7 83/29/7 86/31/7 88/31/7 
f 87/30/6 85/30/6 82/28/6 81/28/6 
f 89/32/1 90/33/1 91/34/1 92/35/1 
f 90/32/2 93/33/2 94/34/2 91/35/2 
f 93/32/3 95/33/3 96/34/3 94/35/3 
f 95/32/4 89/33/4 92/34/4 96/35/4 
f 92/32/7 91/33/7 94/34/7 96/35/7 
f 95/32/6 93/33/6 90/34/6 89/35/6 
f 97/36/1 98/37/1 99/38/1 100/39/1 
f 98/37/2 101/40/2 102/41/2 99/38/2 
f 101/40/3 103/42/3 104/43/3 102/41/3 
f 100/39/2 104/43/2 105/44/2 106/45/2 
f 100/39/7 99/38/7 102/41/7 104/43/7 
f 103/42/6 101/40/6 98/37/6 97/36/6 
f 106/45/6 105/44/6 107/46/6 108/47/6 
s 1
f 103/42/4 97/36/4 109/48/4 110/49/4 
f 104/43/4 103/42/4 110/49/4 105/44/4 
f 97/36/4 100/39/4 106/45/4 109/48/4 
s off
f 111/50/4 112/51/4 108/52/4 107/53/4 
f 110/49/7 109/48/7 112/54/7 111/55/7 
f 105/44/1 110/49/1 111/55/1 107/46/1 
f 109/48/3 106/45/3 108/47/3 112/54/3 
f 113/56/1 114/57/1 115/58/1 116/59/1 
f 114/56/2 117/57/2 118/58/2 115/59/2 
f 117/56/3 119/57/3 120/58/3 118/59/3 
f 119/56/4 113/57/4 116/58/4 120/59/4 
f 116/56/7 115/57/7 118/58/7 120/59/7 
f 113/60/7 119/61/7 121/62/7 122/63/7 
f 122/60/4 121/61/4 123/62/4 124/63/4 
f 119/60/7 117/61/7 125/62/7 121/63/7 
f 117/60/7 114/61/7 126/62/7 125/63/7 
f 114/60/7 113/61/7 122/62/7 126/63/7 
s 1
f 124/60/6 123/61/6 127/62/6 128/63/6 
s off
f 121/60/3 125/61/3 129/62/3 123/63/3 
f 125/60/2 126/61/2 130/62/2 129/63/2 
f 126/60/1 122/61/1 124/62/1 130/63/1 
f 128/60/2 127/61/2 131/62/2 132/63/2 
s 1
f 123/60/6 129/61/6 133/62/6 127/63/6 
f 129/60/6 130/61/6 134/62/6 133/63/6 
f 130/60/6 124/61/6 128/62/6 134/63/6 
s off
f 131/64/6 135/65/6 136/66/6 132/67/6 
f 127/60/1 133/61/1 135/62/1 131/63/1 
f 133/60/4 134/61/4 136/62/4 135/63/4 
f 134/60/3 128/61/3 132/62/3 136/63/3 
# 108 polygons

