# 3ds Max Wavefront OBJ Exporter v0.97b - (c)2007 guruware
# File Created: 10.03.2017 16:04:24

mtllib Building_Coffee Shop.mtl

#
# object Building_Coffee_Shop
#

v  -435.1995 126.5130 260.2714
v  -435.1995 126.5130 211.9585
v  -435.1995 123.5601 211.9585
v  -435.1995 123.5601 260.2714
v  -432.2466 126.5130 211.9585
v  -432.2466 123.5601 211.9585
v  -432.2466 126.5130 260.2714
v  -432.2466 123.5601 260.2714
v  -251.2285 126.5130 260.2714
v  -251.2285 126.5130 211.9585
v  -251.2285 123.5601 211.9585
v  -251.2285 123.5601 260.2714
v  -248.2756 126.5130 211.9585
v  -248.2756 123.5601 211.9585
v  -248.2756 126.5130 260.2714
v  -248.2756 123.5601 260.2714
v  -435.3302 137.3252 258.9547
v  -435.3302 172.9813 211.1899
v  -435.3302 169.7425 209.3199
v  -435.3302 134.0863 257.0847
v  -247.9107 137.3252 258.9547
v  -435.3302 123.3279 262.7053
v  -247.9107 123.3279 262.7053
v  -247.9107 172.9813 211.1899
v  -247.9107 169.7425 209.3199
v  -435.3302 120.0891 260.8353
v  -247.9107 134.0863 257.0847
v  -247.9107 121.3203 266.1826
v  -435.3302 121.3203 266.1826
v  -435.3302 118.0814 264.3127
v  -247.9107 118.0814 264.3127
v  -247.9107 120.0891 260.8353
v  -158.9735 137.7952 217.3439
v  -158.9735 137.7952 203.3483
v  -158.9735 -0.0001 203.3483
v  -158.9735 -0.0001 217.3439
v  -40.8633 137.7952 203.3483
v  -40.8633 -0.0001 203.3483
v  -40.8633 137.7952 217.3439
v  -40.8633 -0.0001 217.3439
v  246.1674 178.7867 155.6987
v  246.1674 178.7867 76.9586
v  246.1674 131.3605 76.9586
v  246.1674 131.3604 155.6987
v  304.6038 139.5289 76.9586
v  304.6038 131.3605 76.9586
v  304.6038 139.5289 155.6987
v  304.6038 131.3604 155.6987
v  246.1675 178.7867 -83.8607
v  246.1675 178.7867 -162.6009
v  246.1675 131.3605 -162.6009
v  246.1675 131.3605 -83.8607
v  304.6039 139.5289 -162.6009
v  304.6039 131.3605 -162.6009
v  304.6039 139.5289 -83.8607
v  304.6039 131.3605 -83.8607
v  246.1674 178.7867 35.4599
v  246.1674 178.7867 -43.2803
v  246.1674 131.3605 -43.2803
v  246.1674 131.3605 35.4599
v  304.6038 139.5289 -43.2803
v  304.6038 131.3605 -43.2803
v  304.6038 139.5289 35.4599
v  304.6038 131.3605 35.4599
v  48.5748 126.5130 260.2714
v  48.5748 126.5130 211.9585
v  48.5748 123.5601 211.9585
v  48.5748 123.5601 260.2714
v  51.5277 126.5130 211.9585
v  51.5277 123.5601 211.9585
v  51.5277 126.5130 260.2714
v  51.5277 123.5601 260.2714
v  232.5457 126.5130 260.2714
v  232.5457 126.5130 211.9585
v  232.5457 123.5601 211.9585
v  232.5457 123.5601 260.2714
v  235.4987 126.5130 211.9585
v  235.4987 123.5601 211.9585
v  235.4987 126.5130 260.2714
v  235.4987 123.5601 260.2714
v  48.4441 137.3252 258.9547
v  48.4441 172.9813 211.1899
v  48.4441 169.7425 209.3199
v  48.4441 134.0863 257.0847
v  235.8635 137.3252 258.9547
v  48.4441 123.3279 262.7053
v  235.8635 123.3279 262.7053
v  235.8635 172.9813 211.1899
v  235.8635 169.7425 209.3199
v  48.4441 120.0891 260.8353
v  235.8635 134.0863 257.0847
v  235.8635 121.3203 266.1826
v  48.4441 121.3203 266.1826
v  48.4441 118.0814 264.3127
v  235.8635 118.0814 264.3127
v  235.8635 120.0891 260.8353
v  256.3129 125.0388 -93.9780
v  246.1309 125.0388 -93.9780
v  246.1309 46.2986 -93.9780
v  256.3129 46.2986 -93.9780
v  246.1309 125.0388 -153.3292
v  246.1309 46.2987 -153.3292
v  256.3129 125.0388 -153.3292
v  256.3129 46.2987 -153.3292
v  256.3129 125.0388 25.8833
v  246.1308 125.0388 25.8833
v  246.1308 46.2986 25.8833
v  256.3129 46.2986 25.8833
v  246.1309 125.0388 -33.4678
v  246.1309 46.2987 -33.4679
v  256.3129 125.0388 -33.4678
v  256.3129 46.2987 -33.4679
v  256.3129 125.0388 146.2919
v  246.1308 125.0388 146.2919
v  246.1308 46.2986 146.2919
v  256.3129 46.2986 146.2919
v  246.1308 125.0388 86.9408
v  246.1308 46.2986 86.9407
v  256.3129 125.0388 86.9408
v  256.3129 46.2986 86.9407
v  -410.1020 125.0388 214.5365
v  -410.1020 125.0388 204.3543
v  -410.1020 46.2986 204.3543
v  -410.1020 46.2986 214.5365
v  -273.1494 125.0388 204.3543
v  -273.1494 46.2986 204.3543
v  -273.1494 125.0388 214.5365
v  -273.1494 46.2986 214.5365
v  72.8714 125.0388 214.5364
v  72.8714 125.0388 204.3543
v  72.8714 46.2986 204.3543
v  72.8714 46.2986 214.5364
v  209.8240 125.0388 204.3543
v  209.8240 46.2986 204.3543
v  209.8240 125.0388 214.5364
v  209.8240 46.2986 214.5364
v  -230.9005 143.9986 231.9372
v  -230.9005 143.9986 184.1493
v  -230.9005 -0.0327 184.1493
v  -230.9005 -0.0327 231.9372
v  -179.6790 143.9986 184.1493
v  -179.6790 -0.0327 184.1493
v  -179.6790 143.9986 231.9372
v  -179.6790 -0.0327 231.9372
v  -179.6790 193.8341 231.9372
v  -179.6790 193.8341 184.1494
v  -230.9005 193.8341 184.1494
v  -230.9005 193.8341 231.9372
v  -21.3964 143.9986 184.1493
v  -21.3964 143.9986 231.9372
v  30.9335 143.9986 184.1493
v  30.9335 0.1213 184.1493
v  -21.3964 0.1213 184.1493
v  -21.3964 193.8341 231.9372
v  -21.3964 193.8341 184.1494
v  30.9335 193.8341 184.1494
v  30.9335 193.8341 231.9372
v  30.9335 143.9986 231.9372
v  -21.3964 0.1213 231.9372
v  30.9335 0.1213 231.9372
v  258.3661 198.2604 -224.2822
v  258.3661 198.2603 216.4617
v  -458.2030 198.2603 216.4617
v  -458.2029 198.2604 -224.2822
v  -458.2030 275.6259 -224.2821
v  -458.2032 275.6259 216.4617
v  -454.1715 275.6259 212.5633
v  -454.1713 275.6259 -220.3838
v  258.3663 275.6259 -224.2820
v  258.3659 275.6259 216.4619
v  -454.1715 252.4056 212.5633
v  -454.1713 252.4057 -220.3838
v  254.3343 275.6259 212.5635
v  254.3347 275.6259 -220.3837
v  254.3347 252.4057 -220.3837
v  254.3343 252.4056 212.5635
v  258.3661 0.0360 -224.2822
v  258.3661 0.0360 216.4617
v  -458.2030 0.0360 216.4616
v  -458.2029 0.0360 -224.2823
v  258.3663 19.6234 -224.2821
v  -458.2030 19.6234 -224.2822
v  -458.2032 19.6234 216.4616
v  258.3659 19.6234 216.4618
v  254.4123 0.0338 -220.4457
v  254.4123 0.0337 212.6252
v  -454.2492 0.0337 212.6252
v  -454.2490 0.0338 -220.4458
v  -454.2491 275.6244 -220.4456
v  -454.2493 275.6243 212.6252
v  -421.6100 275.6243 184.9885
v  -421.6098 275.6243 -192.8090
v  254.4124 275.6244 -220.4455
v  254.4120 275.6243 212.6254
v  -421.6100 260.1112 184.9885
v  -421.6098 260.1112 -192.8090
v  221.7728 275.6243 184.9887
v  221.7731 275.6243 -192.8089
v  221.7731 260.1112 -192.8089
v  221.7728 260.1112 184.9887
# 200 vertices

vn -1.0000 0.0000 -0.0000
vn 0.0000 0.0000 -1.0000
vn 1.0000 0.0000 -0.0000
vn 0.0000 -0.0000 1.0000
vn 0.0000 -1.0000 -0.0000
vn 0.0000 1.0000 0.0000
vn 0.0000 0.2588 0.9659
vn 0.0000 0.5000 -0.8660
vn 0.0000 -0.5000 0.8660
vn 0.0000 -0.8660 -0.5000
vn 0.0000 -0.8013 -0.5982
vn 0.0000 -0.2588 -0.9659
vn 0.0000 0.8013 0.5982
vn 0.0000 0.8660 0.5000
vn 0.5576 0.8301 0.0000
vn -0.0000 -0.0000 1.0000
vn -0.0000 0.0000 -1.0000
vn -0.0000 -1.0000 -0.0000
vn -0.0000 1.0000 0.0000
vn 1.0000 0.0000 0.0000
vn -1.0000 -0.0000 -0.0000
vn 1.0000 -0.0000 0.0000
# 22 vertex normals

vt 0.6723 0.3982 0.0000
vt 0.6723 0.3935 0.0000
vt 0.6770 0.3982 0.0000
vt 0.6770 0.3935 0.0000
vt 0.9678 0.3982 0.0000
vt 0.9678 0.3935 0.0000
vt 0.9725 0.3982 0.0000
vt 0.9725 0.3935 0.0000
vt 0.6721 0.4156 0.0000
vt 0.6721 0.4728 0.0000
vt 0.6721 0.4676 0.0000
vt 0.6721 0.4104 0.0000
vt 0.9731 0.4156 0.0000
vt 0.6721 0.3931 0.0000
vt 0.9731 0.3931 0.0000
vt 0.9731 0.4728 0.0000
vt 0.9731 0.4676 0.0000
vt 0.6721 0.3879 0.0000
vt 0.9731 0.4104 0.0000
vt 0.9731 0.3899 0.0000
vt 0.6721 0.3899 0.0000
vt 0.6721 0.3847 0.0000
vt 0.9731 0.3847 0.0000
vt 0.9731 0.3879 0.0000
vt 0.0000 0.0000 0.0000
vt 0.9799 0.3079 0.0000
vt 0.7330 0.3079 0.0000
vt 0.7330 0.0143 0.0000
vt 0.9799 0.0143 0.0000
vt 0.6783 0.4396 0.0000
vt 0.6875 0.4396 0.0000
vt 0.6875 0.4488 0.0000
vt 0.6783 0.4488 0.0000
vt 0.4560 0.2120 0.0000
vt 0.4560 0.0146 0.0000
vt 0.5463 0.2120 0.0000
vt 0.5463 0.0146 0.0000
vt 0.4561 0.2120 0.0000
vt 0.4561 0.0146 0.0000
vt 0.5464 0.2120 0.0000
vt 0.5464 0.0146 0.0000
vt 0.4561 0.2118 0.0000
vt 0.4561 0.0143 0.0000
vt 0.7140 0.2118 0.0000
vt 0.7140 0.0143 0.0000
vt 0.4563 0.2118 0.0000
vt 0.4563 0.0143 0.0000
vt 0.7142 0.2118 0.0000
vt 0.7142 0.0143 0.0000
vt 0.1785 0.8423 0.0000
vt 0.1785 0.8364 0.0000
vt 0.1806 0.8423 0.0000
vt 0.1806 0.8364 0.0000
vt 0.1806 0.8443 0.0000
vt 0.1785 0.8443 0.0000
vt 0.1870 0.8423 0.0000
vt 0.1892 0.8423 0.0000
vt 0.1892 0.8364 0.0000
vt 0.1870 0.8364 0.0000
vt 0.1870 0.8443 0.0000
vt 0.1892 0.8443 0.0000
vt 0.2373 0.8882 0.0000
vt 0.9850 0.7689 0.0000
vt 0.9850 0.8734 0.0000
vt 0.0170 0.8734 0.0000
vt 0.0170 0.7689 0.0000
vt 0.1913 0.8793 0.0000
vt 0.2413 0.8793 0.0000
vt 0.2413 0.9293 0.0000
vt 0.1913 0.9293 0.0000
vt 0.3916 0.4595 0.0000
vt 0.3676 0.4595 0.0000
vt 0.1702 0.8848 0.0000
vt 0.1714 0.8848 0.0000
vt 0.3916 0.4689 0.0000
vt 0.3676 0.4689 0.0000
vt 0.1714 0.8842 0.0000
vt 0.1943 0.8848 0.0000
vt 0.1932 0.8848 0.0000
vt 0.3905 0.1189 0.0000
vt 0.3687 0.1189 0.0000
vt 0.1932 0.8842 0.0000
# 82 texture coords

g Building_Coffee_Shop
usemtl Building_Coffee_Shop
s off
f 1/1/1 2/1/1 3/2/1 4/2/1 
f 2/1/2 5/3/2 6/4/2 3/2/2 
f 5/3/3 7/3/3 8/4/3 6/4/3 
f 7/3/4 1/1/4 4/2/4 8/4/4 
f 4/2/5 3/2/5 6/4/5 8/4/5 
f 7/3/6 5/3/6 2/1/6 1/1/6 
f 9/5/1 10/5/1 11/6/1 12/6/1 
f 10/5/2 13/7/2 14/8/2 11/6/2 
f 13/7/3 15/7/3 16/8/3 14/8/3 
f 15/7/4 9/5/4 12/6/4 16/8/4 
f 12/6/5 11/6/5 14/8/5 16/8/5 
f 15/7/6 13/7/6 10/5/6 9/5/6 
f 17/9/1 18/10/1 19/11/1 20/12/1 
f 21/13/7 17/9/7 22/14/7 23/15/7 
f 18/10/8 24/16/8 25/17/8 19/11/8 
f 17/9/1 20/12/1 26/18/1 22/14/1 
s 1
f 24/16/3 21/13/3 27/19/3 25/17/3 
s off
f 28/20/9 29/21/9 30/22/9 31/23/9 
f 29/21/1 22/14/1 26/18/1 30/22/1 
f 30/22/10 26/18/10 32/24/10 31/23/10 
f 20/12/11 19/11/11 25/17/11 27/19/11 
f 20/12/12 27/19/12 32/24/12 26/18/12 
f 21/13/13 24/16/13 18/10/13 17/9/13 
f 28/20/14 23/15/14 22/14/14 29/21/14 
s 1
f 27/19/3 21/13/3 23/15/3 32/24/3 
f 23/15/3 28/20/3 31/23/3 32/24/3 
s off
f 33/25/1 34/25/1 35/25/1 36/25/1 
f 34/25/2 37/25/2 38/25/2 35/25/2 
f 37/25/3 39/25/3 40/25/3 38/25/3 
f 39/26/4 33/27/4 36/28/4 40/29/4 
f 36/25/5 35/25/5 38/25/5 40/25/5 
f 39/25/6 37/25/6 34/25/6 33/25/6 
f 41/30/1 42/31/1 43/32/1 44/33/1 
f 42/30/2 45/31/2 46/32/2 43/33/2 
f 45/30/3 47/31/3 48/32/3 46/33/3 
f 47/30/4 41/31/4 44/32/4 48/33/4 
f 44/30/5 43/31/5 46/32/5 48/33/5 
f 47/30/15 45/31/15 42/32/15 41/33/15 
f 49/30/1 50/31/1 51/32/1 52/33/1 
f 50/30/2 53/31/2 54/32/2 51/33/2 
f 53/30/3 55/31/3 56/32/3 54/33/3 
f 55/30/4 49/31/4 52/32/4 56/33/4 
f 52/30/5 51/31/5 54/32/5 56/33/5 
f 55/30/15 53/31/15 50/32/15 49/33/15 
f 57/30/1 58/31/1 59/32/1 60/33/1 
f 58/30/2 61/31/2 62/32/2 59/33/2 
f 61/30/3 63/31/3 64/32/3 62/33/3 
f 63/30/16 57/31/16 60/32/16 64/33/16 
f 60/30/5 59/31/5 62/32/5 64/33/5 
f 63/30/15 61/31/15 58/32/15 57/33/15 
f 65/1/1 66/1/1 67/2/1 68/2/1 
f 66/1/2 69/3/2 70/4/2 67/2/2 
f 69/3/3 71/3/3 72/4/3 70/4/3 
f 71/3/4 65/1/4 68/2/4 72/4/4 
f 68/2/5 67/2/5 70/4/5 72/4/5 
f 71/3/6 69/3/6 66/1/6 65/1/6 
f 73/5/1 74/5/1 75/6/1 76/6/1 
f 74/5/2 77/7/2 78/8/2 75/6/2 
f 77/7/3 79/7/3 80/8/3 78/8/3 
f 79/7/4 73/5/4 76/6/4 80/8/4 
f 76/6/5 75/6/5 78/8/5 80/8/5 
f 79/7/6 77/7/6 74/5/6 73/5/6 
s 1
f 81/9/1 82/10/1 83/11/1 84/12/1 
s off
f 85/13/7 81/9/7 86/14/7 87/15/7 
f 82/10/8 88/16/8 89/17/8 83/11/8 
s 1
f 81/9/1 84/12/1 90/18/1 86/14/1 
f 88/16/3 85/13/3 91/19/3 89/17/3 
s off
f 92/20/9 93/21/9 94/22/9 95/23/9 
s 1
f 93/21/1 86/14/1 90/18/1 94/22/1 
s off
f 94/22/10 90/18/10 96/24/10 95/23/10 
f 84/12/11 83/11/11 89/17/11 91/19/11 
f 84/12/12 91/19/12 96/24/12 90/18/12 
f 85/13/13 88/16/13 82/10/13 81/9/13 
f 92/20/14 87/15/14 86/14/14 93/21/14 
s 1
f 91/19/3 85/13/3 87/15/3 96/24/3 
s off
f 87/15/3 92/20/3 95/23/3 96/24/3 
f 97/34/4 98/34/4 99/35/4 100/35/4 
f 98/34/1 101/36/1 102/37/1 99/35/1 
f 101/36/2 103/36/2 104/37/2 102/37/2 
f 100/35/5 99/35/5 102/37/5 104/37/5 
f 103/36/6 101/36/6 98/34/6 97/34/6 
f 105/38/4 106/38/4 107/39/4 108/39/4 
f 106/38/1 109/40/1 110/41/1 107/39/1 
f 109/40/2 111/40/2 112/41/2 110/41/2 
f 108/39/5 107/39/5 110/41/5 112/41/5 
f 111/40/6 109/40/6 106/38/6 105/38/6 
f 113/34/4 114/34/4 115/35/4 116/35/4 
f 114/34/1 117/36/1 118/37/1 115/35/1 
f 117/36/2 119/36/2 120/37/2 118/37/2 
f 116/35/5 115/35/5 118/37/5 120/37/5 
f 119/36/6 117/36/6 114/34/6 113/34/6 
f 108/39/3 112/41/3 111/40/3 105/38/3 
f 116/35/3 120/37/3 119/36/3 113/34/3 
f 100/35/3 104/37/3 103/36/3 97/34/3 
f 121/42/1 122/42/1 123/43/1 124/43/1 
f 122/42/2 125/44/2 126/45/2 123/43/2 
f 125/44/3 127/44/3 128/45/3 126/45/3 
f 124/43/5 123/43/5 126/45/5 128/45/5 
f 127/44/6 125/44/6 122/42/6 121/42/6 
f 124/43/4 128/45/4 127/44/4 121/42/4 
f 129/46/1 130/46/1 131/47/1 132/47/1 
f 130/46/17 133/48/17 134/49/17 131/47/17 
f 133/48/3 135/48/3 136/49/3 134/49/3 
f 132/47/5 131/47/5 134/49/5 136/49/5 
f 135/48/6 133/48/6 130/46/6 129/46/6 
f 132/47/4 136/49/4 135/48/4 129/46/4 
s 1
f 137/50/1 138/50/1 139/51/1 140/51/1 
s 2
f 138/50/2 141/52/2 142/53/2 139/51/2 
s off
f 141/52/3 143/52/3 144/53/3 142/53/3 
s 2
f 143/52/4 137/50/4 140/51/4 144/53/4 
s off
f 140/51/5 139/51/5 142/53/5 144/53/5 
s 4
f 145/54/6 146/54/6 147/55/6 148/55/6 
s 2
f 145/54/4 148/55/4 137/50/4 143/52/4 
s off
f 143/52/5 141/52/5 149/56/5 150/56/5 
s 2
f 147/55/2 146/54/2 141/52/2 138/50/2 
s 1
f 148/55/1 147/55/1 138/50/1 137/50/1 
s 2
f 149/56/2 151/57/2 152/58/2 153/59/2 
f 145/54/4 143/52/4 150/56/4 154/60/4 
f 141/52/2 146/54/2 155/60/2 149/56/2 
s 4
f 146/54/6 145/54/6 154/60/6 155/60/6 
s 1
f 156/61/3 157/61/3 158/57/3 151/57/3 
s 2
f 154/60/4 150/56/4 158/57/4 157/61/4 
f 149/56/2 155/60/2 156/61/2 151/57/2 
s 4
f 155/60/6 154/60/6 157/61/6 156/61/6 
s off
f 159/59/5 153/59/5 152/58/5 160/58/5 
s 2
f 158/57/4 150/56/4 159/59/4 160/58/4 
s 1
f 151/57/3 158/57/3 160/58/3 152/58/3 
s off
f 150/56/1 149/56/1 153/59/1 159/59/1 
f 161/62/18 162/62/18 163/62/18 164/62/18 
s 1
f 165/62/6 166/62/19 167/62/19 168/62/6 
s off
f 161/62/20 169/62/20 170/62/20 162/62/20 
f 162/63/16 170/64/16 166/65/16 163/66/16 
f 163/62/21 166/62/21 165/62/21 164/62/21 
f 169/62/2 161/62/2 164/62/2 165/62/2 
f 168/62/22 167/62/22 171/62/22 172/62/22 
f 166/62/6 170/62/6 173/62/6 167/62/6 
s 1
f 169/62/19 165/62/6 168/62/6 174/62/19 
f 170/62/6 169/62/19 174/62/19 173/62/6 
s off
f 175/62/6 172/62/6 171/62/6 176/62/6 
f 167/62/2 173/62/2 176/62/2 171/62/2 
f 174/62/16 168/62/16 172/62/16 175/62/16 
f 173/62/1 174/62/1 175/62/1 176/62/1 
f 177/67/18 178/68/18 179/69/18 180/70/18 
f 181/67/6 182/68/6 183/69/6 184/70/6 
f 177/67/20 181/68/20 184/69/20 178/70/20 
f 178/67/16 184/68/16 183/69/16 179/70/16 
f 179/67/21 183/68/21 182/69/21 180/70/21 
f 181/67/2 177/68/2 180/69/2 182/70/2 
f 185/71/18 186/71/18 187/72/18 188/72/18 
s 1
f 189/73/6 190/73/19 191/74/19 192/74/6 
s off
f 185/71/20 193/75/20 194/75/20 186/71/20 
f 186/71/16 194/75/16 190/76/16 187/72/16 
f 187/72/21 190/76/21 189/76/21 188/72/21 
f 193/75/2 185/71/2 188/72/2 189/76/2 
f 192/74/22 191/74/22 195/77/22 196/77/22 
s 1
f 190/73/19 194/78/6 197/79/6 191/74/19 
f 193/78/19 189/73/6 192/74/6 198/79/19 
f 194/78/6 193/78/19 198/79/19 197/79/6 
s off
f 199/80/6 196/81/6 195/81/6 200/80/6 
f 191/74/2 197/79/2 200/82/2 195/77/2 
f 198/79/16 192/74/16 196/77/16 199/82/16 
f 197/79/1 198/79/1 199/82/1 200/82/1 
# 162 polygons

