# 3ds Max Wavefront OBJ Exporter v0.97b - (c)2007 guruware
# File Created: 10.03.2017 16:01:39

mtllib Building_Bar.mtl

#
# object Building_Bar
#

v  -105.2914 226.4765 121.9781
v  -105.2914 226.4765 117.6673
v  -105.2914 182.9861 117.6673
v  -105.2914 182.9861 121.9781
v  105.2914 226.4765 117.6673
v  105.2914 182.9861 117.6673
v  105.2914 226.4765 121.9781
v  105.2914 182.9861 121.9781
v  -128.4645 183.4496 126.0530
v  -128.4645 183.9876 115.1753
v  -128.4645 155.9813 115.1753
v  -128.4645 155.9838 170.9325
v  -128.4645 161.4471 169.8611
v  -128.4645 166.7004 166.6882
v  -128.4645 171.5419 161.5357
v  -128.4645 175.7855 154.6016
v  -128.4645 179.2682 146.1524
v  -128.4645 181.8560 136.5127
v  124.8391 183.4496 126.0530
v  124.8391 181.8560 136.5127
v  124.8391 179.2682 146.1524
v  124.8391 175.7855 154.6016
v  124.8391 171.5419 161.5357
v  124.8391 166.7004 166.6882
v  124.8391 161.4471 169.8611
v  124.8391 155.9838 170.9325
v  124.8391 155.9814 115.1753
v  124.8391 183.9877 115.1753
v  144.0182 389.5937 -120.0151
v  144.0182 389.5937 120.0152
v  -144.0182 389.5937 120.0152
v  -144.0181 389.5937 -120.0152
v  144.0183 392.3516 -120.0151
v  -144.0182 392.3516 -120.0151
v  -144.0182 392.3515 120.0151
v  144.0181 392.3515 120.0153
v  144.0182 360.7435 -120.0151
v  144.0182 360.7435 120.0152
v  -144.0182 360.7435 120.0152
v  -144.0181 360.7435 -120.0152
v  144.0183 376.2331 -120.0151
v  -144.0182 376.2331 -120.0151
v  -144.0182 376.2330 120.0151
v  144.0181 376.2330 120.0153
v  -105.7588 339.4969 119.7779
v  -105.7588 339.4969 112.0978
v  -105.7588 235.8137 112.0978
v  -105.7588 235.8137 119.7779
v  -34.3392 339.4969 112.0978
v  -34.3392 235.8137 112.0978
v  -34.3392 339.4969 119.7779
v  -34.3392 235.8137 119.7779
v  36.5885 339.4969 119.7779
v  36.5885 339.4969 112.0978
v  36.5885 235.8137 112.0978
v  36.5885 235.8137 119.7779
v  108.0081 339.4969 112.0978
v  108.0081 235.8137 112.0978
v  108.0081 339.4969 119.7779
v  108.0081 235.8137 119.7779
v  5.5384 127.4309 119.7779
v  5.5384 127.4309 112.0978
v  5.5384 48.2039 112.0978
v  5.5384 48.2039 119.7779
v  116.2732 127.4309 112.0978
v  116.2732 48.2039 112.0978
v  116.2732 127.4309 119.7779
v  116.2732 48.2039 119.7779
v  -117.3724 150.5739 122.6732
v  -117.3724 150.5739 111.7341
v  -117.3724 3.0660 111.7340
v  -117.3724 3.0660 122.6732
v  -22.7671 150.5739 111.7341
v  -22.7671 3.0660 111.7340
v  -22.7671 150.5739 122.6732
v  -22.7671 3.0660 122.6732
v  -31.2489 3.0755 122.6732
v  -108.8905 3.0755 122.6732
v  -31.2489 3.0755 120.4800
v  -108.8905 3.0755 120.4800
v  -108.8905 142.7309 122.6732
v  -31.2489 142.7309 122.6732
v  -31.2489 142.7309 120.4800
v  -108.8905 142.7309 120.4800
v  144.0182 197.2430 -120.0152
v  144.0182 197.2430 120.0152
v  -144.0182 197.2430 120.0151
v  -144.0181 197.2430 -120.0152
v  144.0183 212.7326 -120.0151
v  -144.0182 212.7326 -120.0152
v  -144.0182 212.7326 120.0151
v  144.0181 212.7326 120.0152
v  144.0182 2.7567 -120.0152
v  144.0182 2.7566 120.0151
v  -144.0182 2.7566 120.0151
v  -144.0181 2.7567 -120.0152
v  144.0183 18.2462 -120.0151
v  -144.0182 18.2462 -120.0152
v  -144.0182 18.2462 120.0151
v  144.0181 18.2462 120.0152
v  141.7323 3.0549 -118.1103
v  141.7323 3.0549 118.1102
v  -141.7323 3.0549 118.1102
v  -141.7322 3.0549 -118.1103
v  -141.7323 407.8423 -118.1102
v  -141.7323 407.8423 118.1102
v  -144.8404 407.8423 120.7003
v  -144.8403 407.8423 -120.7003
v  141.7323 407.8423 -118.1102
v  141.7322 407.8423 118.1103
v  -144.8404 412.6390 120.7003
v  -144.8403 412.6391 -120.7003
v  144.8403 407.8423 120.7004
v  144.8404 407.8423 -120.7002
v  -124.8935 412.6390 104.0779
v  -124.8934 412.6391 -104.0779
v  144.8403 412.6390 120.7004
v  144.8404 412.6391 -120.7002
v  -124.8935 402.0191 104.0779
v  -124.8934 402.0191 -104.0779
v  124.8934 412.6390 104.0780
v  124.8935 412.6391 -104.0778
v  124.8935 402.0191 -104.0778
v  124.8934 402.0191 104.0780
# 124 vertices

vn -1.0000 0.0000 -0.0000
vn 0.0000 0.0000 -1.0000
vn 1.0000 0.0000 -0.0000
vn 0.0000 -0.0000 1.0000
vn 0.0000 -1.0000 -0.0000
vn 0.0000 1.0000 0.0000
vn -1.0000 0.0000 0.0000
vn 0.0000 -1.0000 0.0000
vn -0.0000 0.1924 0.9813
vn -0.0000 0.5170 0.8560
vn -0.0000 0.7288 0.6848
vn -0.0000 0.8529 0.5220
vn -0.0000 0.9245 0.3811
vn -0.0000 0.9658 0.2593
vn -0.0000 0.9886 0.1506
vn -0.0000 0.9988 0.0494
vn 1.0000 0.0000 0.0000
vn -0.0000 -0.0000 1.0000
vn -1.0000 -0.0000 -0.0000
vn -0.0000 -1.0000 -0.0000
vn 1.0000 -0.0000 0.0000
# 21 vertex normals

vt 0.0000 0.0000 0.0000
vt 0.8183 0.7278 0.0000
vt 0.1974 0.7278 0.0000
vt 0.1974 0.5995 0.0000
vt 0.8183 0.5995 0.0000
vt 0.6719 0.4385 0.0000
vt 0.6719 0.4391 0.0000
vt 0.6719 0.4058 0.0000
vt 0.6719 0.4123 0.0000
vt 0.6719 0.4185 0.0000
vt 0.6719 0.4243 0.0000
vt 0.6719 0.4293 0.0000
vt 0.6719 0.4335 0.0000
vt 0.6719 0.4366 0.0000
vt 0.9732 0.4385 0.0000
vt 0.9732 0.4366 0.0000
vt 0.9732 0.4335 0.0000
vt 0.9732 0.4293 0.0000
vt 0.9732 0.4243 0.0000
vt 0.9732 0.4185 0.0000
vt 0.9732 0.4123 0.0000
vt 0.9732 0.4058 0.0000
vt 0.9732 0.4391 0.0000
vt 0.2289 0.8812 0.0000
vt 0.2829 0.8812 0.0000
vt 0.2829 0.9352 0.0000
vt 0.2289 0.9352 0.0000
vt 0.3090 0.8715 0.0000
vt 0.3590 0.8715 0.0000
vt 0.3590 0.9215 0.0000
vt 0.3090 0.9215 0.0000
vt 0.5681 0.2455 0.0000
vt 0.4008 0.2455 0.0000
vt 0.4008 0.0179 0.0000
vt 0.5681 0.0179 0.0000
vt 0.5680 0.2455 0.0000
vt 0.4007 0.2455 0.0000
vt 0.4007 0.0179 0.0000
vt 0.5680 0.0179 0.0000
vt 0.4056 0.1339 0.0000
vt 0.4056 0.0223 0.0000
vt 0.5644 0.1339 0.0000
vt 0.5644 0.0223 0.0000
vt 0.2686 0.9094 0.0000
vt 0.2619 0.9187 0.0000
vt 0.2826 0.8957 0.0000
vt 0.2882 0.8997 0.0000
vt 0.2769 0.8918 0.0000
vt 0.2975 0.8687 0.0000
vt 0.2713 0.8878 0.0000
vt 0.2909 0.8781 0.0000
vt 0.2896 0.8796 0.0000
vt 0.2879 0.8999 0.0000
vt 0.2911 0.8780 0.0000
vt 0.2911 0.9019 0.0000
vt 0.2697 0.9080 0.0000
vt 0.2715 0.8882 0.0000
vt 0.9684 0.3091 0.0000
vt 0.8058 0.3091 0.0000
vt 0.8058 0.0168 0.0000
vt 0.9684 0.0168 0.0000
vt 0.2682 0.9095 0.0000
vt 0.2683 0.8862 0.0000
vt 0.4145 0.8871 0.0000
vt 0.4645 0.8871 0.0000
vt 0.4645 0.9371 0.0000
vt 0.4145 0.9371 0.0000
vt 0.3813 0.8773 0.0000
vt 0.4312 0.8773 0.0000
vt 0.4312 0.9273 0.0000
vt 0.3813 0.9273 0.0000
vt 0.2211 0.2641 0.0000
vt 0.2711 0.2641 0.0000
vt 0.2711 0.3141 0.0000
vt 0.2211 0.3141 0.0000
vt 0.2523 0.8793 0.0000
vt 0.3023 0.8793 0.0000
vt 0.3023 0.9293 0.0000
vt 0.2523 0.9293 0.0000
vt 0.6427 0.1617 0.0000
vt 0.6927 0.1617 0.0000
vt 0.6927 0.2117 0.0000
vt 0.6427 0.2117 0.0000
# 83 texture coords

g Building_Bar
usemtl Building_Bar
s off
f 1/1/1 2/1/1 3/1/1 4/1/1 
f 2/1/2 5/1/2 6/1/2 3/1/2 
f 5/1/3 7/1/3 8/1/3 6/1/3 
f 7/2/4 1/3/4 4/4/4 8/5/4 
f 4/1/5 3/1/5 6/1/5 8/1/5 
f 7/1/6 5/1/6 2/1/6 1/1/6 
f 9/6/7 10/7/7 11/8/7 12/8/7 
f 9/6/1 12/8/1 13/9/1 14/10/1 
f 9/6/1 14/10/1 15/11/1 16/12/1 
f 9/6/1 16/12/1 17/13/1 18/14/1 
f 19/15/3 20/16/3 21/17/3 22/18/3 
f 19/15/3 22/18/3 23/19/3 24/20/3 
f 19/15/3 24/20/3 25/21/3 26/22/3 
f 19/15/3 26/22/3 27/22/3 28/23/3 
f 12/8/8 11/8/8 27/22/8 26/22/8 
f 11/8/2 10/7/2 28/23/2 27/22/2 
f 13/9/9 12/8/9 26/22/9 25/21/9 
f 14/10/10 13/9/10 25/21/10 24/20/10 
f 15/11/11 14/10/11 24/20/11 23/19/11 
f 16/12/12 15/11/12 23/19/12 22/18/12 
f 17/13/13 16/12/13 22/18/13 21/17/13 
f 18/14/14 17/13/14 21/17/14 20/16/14 
f 9/6/15 18/14/15 20/16/15 19/15/15 
f 10/7/16 9/6/16 19/15/16 28/23/16 
f 29/24/5 30/25/5 31/26/5 32/27/5 
f 33/24/6 34/25/6 35/26/6 36/27/6 
f 29/24/17 33/25/17 36/26/17 30/27/17 
f 30/24/18 36/25/18 35/26/18 31/27/18 
f 31/24/19 35/25/19 34/26/19 32/27/19 
f 33/24/2 29/25/2 32/26/2 34/27/2 
f 37/28/5 38/29/5 39/30/5 40/31/5 
f 41/28/6 42/29/6 43/30/6 44/31/6 
f 37/28/17 41/29/17 44/30/17 38/31/17 
f 38/28/18 44/29/18 43/30/18 39/31/18 
f 39/28/19 43/29/19 42/30/19 40/31/19 
f 41/28/2 37/29/2 40/30/2 42/31/2 
f 45/1/1 46/1/1 47/1/1 48/1/1 
f 46/1/2 49/1/2 50/1/2 47/1/2 
f 49/1/3 51/1/3 52/1/3 50/1/3 
f 51/32/4 45/33/4 48/34/4 52/35/4 
f 48/1/5 47/1/5 50/1/5 52/1/5 
f 51/1/6 49/1/6 46/1/6 45/1/6 
f 53/1/1 54/1/1 55/1/1 56/1/1 
f 54/1/2 57/1/2 58/1/2 55/1/2 
f 57/1/3 59/1/3 60/1/3 58/1/3 
f 59/36/4 53/37/4 56/38/4 60/39/4 
f 56/1/5 55/1/5 58/1/5 60/1/5 
f 59/1/6 57/1/6 54/1/6 53/1/6 
f 61/40/1 62/40/1 63/41/1 64/41/1 
f 62/40/2 65/42/2 66/43/2 63/41/2 
f 65/42/3 67/42/3 68/43/3 66/43/3 
f 67/42/4 61/40/4 64/41/4 68/43/4 
f 64/41/5 63/41/5 66/43/5 68/43/5 
f 67/42/6 65/42/6 62/40/6 61/40/6 
f 69/44/1 70/45/1 71/46/1 72/47/1 
f 70/45/2 73/48/2 74/49/2 71/46/2 
f 73/48/3 75/50/3 76/51/3 74/49/3 
s 1
f 72/47/18 76/51/4 77/52/4 78/53/4 
s off
f 72/47/5 71/46/5 74/49/5 76/51/5 
f 75/50/6 73/48/6 70/45/6 69/44/6 
f 78/53/6 77/52/6 79/54/6 80/55/6 
s 1
f 75/50/4 69/44/4 81/56/4 82/57/4 
s off
f 76/51/18 75/50/18 82/57/18 77/52/18 
s 1
f 69/44/4 72/47/18 78/53/4 81/56/4 
s off
f 83/58/4 84/59/4 80/60/4 79/61/4 
f 82/57/5 81/56/5 84/62/5 83/63/5 
f 77/52/1 82/57/1 83/63/1 79/54/1 
f 81/56/3 78/53/3 80/55/3 84/62/3 
f 85/64/20 86/65/20 87/66/20 88/67/20 
f 89/64/6 90/65/6 91/66/6 92/67/6 
f 85/64/17 89/65/17 92/66/17 86/67/17 
f 86/64/18 92/65/18 91/66/18 87/67/18 
f 87/64/19 91/65/19 90/66/19 88/67/19 
f 89/64/2 85/65/2 88/66/2 90/67/2 
f 93/68/5 94/69/5 95/70/5 96/71/5 
f 97/68/6 98/69/6 99/70/6 100/71/6 
f 93/68/17 97/69/17 100/70/17 94/71/17 
f 94/68/18 100/69/18 99/70/18 95/71/18 
f 95/68/19 99/69/19 98/70/19 96/71/19 
f 97/68/2 93/69/2 96/70/2 98/71/2 
f 101/72/5 102/73/5 103/74/5 104/75/5 
s 1
f 105/76/5 106/77/5 107/78/5 108/79/5 
s off
f 101/72/17 109/73/17 110/74/17 102/75/17 
f 102/72/18 110/73/18 106/74/18 103/75/18 
f 103/72/19 106/73/19 105/74/19 104/75/19 
f 109/72/2 101/73/2 104/74/2 105/75/2 
f 108/76/1 107/77/1 111/78/1 112/79/1 
s 1
f 106/76/5 110/77/5 113/78/5 107/79/5 
s off
f 109/76/5 105/77/5 108/78/5 114/79/5 
s 1
f 110/76/5 109/77/5 114/78/5 113/79/5 
f 112/76/6 111/77/6 115/78/6 116/79/6 
s off
f 107/76/18 113/77/18 117/78/18 111/79/18 
f 114/76/2 108/77/2 112/78/2 118/79/2 
f 113/76/21 114/77/21 118/78/21 117/79/21 
f 116/76/21 115/77/21 119/78/21 120/79/21 
s 1
f 111/76/6 117/77/6 121/78/6 115/79/6 
f 118/76/6 112/77/6 116/78/6 122/79/6 
f 117/76/6 118/77/6 122/78/6 121/79/6 
s off
f 123/80/6 120/81/6 119/82/6 124/83/6 
f 115/76/2 121/77/2 124/78/2 119/79/2 
f 122/76/18 116/77/18 120/78/18 123/79/18 
f 121/76/1 122/77/1 123/78/1 124/79/1 
# 102 polygons

