# 3ds Max Wavefront OBJ Exporter v0.97b - (c)2007 guruware
# File Created: 10.03.2017 16:22:50

mtllib Building_Music Store.mtl

#
# object Building_Music_Store
#

v  -217.8744 56.1819 196.1053
v  -217.8744 56.1819 116.7603
v  -217.8744 -7.6597 116.7603
v  -217.8744 -7.6597 196.1053
v  215.1308 56.1819 116.7603
v  215.1308 -7.6597 116.7603
v  215.1308 56.1819 196.1053
v  215.1308 -7.6597 196.1053
v  196.4526 56.1819 181.5996
v  -199.1962 56.1819 181.5996
v  196.4526 41.6356 181.5996
v  -199.1962 41.6356 181.5996
v  196.4526 56.1819 117.7866
v  -199.1962 56.1819 117.7866
v  196.4526 41.6356 117.7866
v  -199.1962 41.6356 117.7866
v  -169.2692 177.4988 168.0752
v  -169.2692 189.5564 145.3118
v  -169.2692 172.4322 145.3118
v  -169.2692 172.4322 168.0752
v  -91.0497 189.5564 145.3118
v  -91.0497 172.4322 145.3118
v  -91.0497 177.4988 168.0752
v  -91.0497 172.4322 168.0752
v  88.0874 177.4988 168.0752
v  88.0874 189.5564 145.3118
v  88.0874 172.4321 145.3118
v  88.0874 172.4321 168.0752
v  166.3069 189.5564 145.3118
v  166.3069 172.4321 145.3118
v  166.3069 177.4987 168.0752
v  166.3069 172.4321 168.0752
v  -40.4816 177.4988 168.0752
v  -40.4816 189.5564 145.3118
v  -40.4816 172.4321 145.3118
v  -40.4816 172.4321 168.0752
v  37.7379 189.5564 145.3118
v  37.7379 172.4321 145.3118
v  37.7379 177.4988 168.0752
v  37.7379 172.4321 168.0752
v  -33.5417 163.2680 148.9842
v  -33.5417 163.2680 145.1394
v  -33.5417 74.8494 145.1394
v  -33.5417 74.8494 148.9842
v  31.1435 163.2679 145.1394
v  31.1435 74.8494 145.1394
v  31.1435 163.2679 148.9842
v  31.1435 74.8494 148.9842
v  94.8642 163.2679 148.9842
v  94.8642 163.2679 145.1394
v  94.8642 74.8493 145.1394
v  94.8642 74.8493 148.9842
v  159.5494 163.2679 145.1394
v  159.5494 74.8493 145.1394
v  159.5494 163.2679 148.9842
v  159.5494 74.8493 148.9842
v  -162.5058 163.2680 148.9842
v  -162.5058 163.2680 145.1394
v  -162.5058 74.8494 145.1394
v  -162.5058 74.8494 148.9842
v  -97.8206 163.2680 145.1394
v  -97.8206 74.8494 145.1394
v  -97.8206 163.2680 148.9842
v  -97.8206 74.8494 148.9842
v  -162.5058 -32.1028 148.9842
v  -162.5058 -32.1028 145.1394
v  -162.5058 -120.5214 145.1394
v  -162.5058 -120.5214 148.9842
v  -97.8206 -32.1028 145.1394
v  -97.8206 -120.5214 145.1394
v  -97.8206 -32.1028 148.9842
v  -97.8206 -120.5214 148.9842
v  -33.6082 -32.1028 148.9842
v  -33.6082 -32.1028 145.1394
v  -33.6082 -120.5214 145.1394
v  -33.6082 -120.5214 148.9842
v  31.0770 -32.1028 145.1394
v  31.0770 -120.5214 145.1394
v  31.0770 -32.1028 148.9842
v  31.0770 -120.5214 148.9842
v  -220.0412 -139.9747 148.1014
v  -220.0412 -139.9747 -209.7212
v  -220.0412 -152.1188 -209.7213
v  -220.0412 -152.1189 148.1014
v  217.2976 -139.9747 -209.7212
v  217.2976 -152.1188 -209.7213
v  217.2976 -139.9747 148.1014
v  217.2976 -152.1189 148.1014
v  83.5466 -20.5050 150.8150
v  83.5466 -20.5050 138.6217
v  83.5466 -151.9161 138.6217
v  83.5466 -151.9161 150.8150
v  170.4659 -20.5050 138.6217
v  170.4659 -151.9161 138.6217
v  170.4659 -20.5050 150.8150
v  170.4659 -151.9161 150.8150
v  163.6549 -151.9281 150.8150
v  90.3577 -151.9281 150.8150
v  163.6549 -151.9281 148.6538
v  90.3577 -151.9281 148.6538
v  90.3577 -27.1945 150.8150
v  163.6549 -27.1945 150.8150
v  163.6549 -27.1945 148.6538
v  90.3577 -27.1945 148.6538
v  -217.9072 209.5627 146.3554
v  -217.9072 209.5628 -207.9752
v  -217.9072 -152.0284 -207.9753
v  -217.9072 -152.0285 146.3554
v  215.1636 209.5628 -207.9752
v  215.1636 -152.0284 -207.9753
v  215.1636 209.5627 146.3554
v  215.1636 -152.0285 146.3554
v  219.4704 209.5627 149.8792
v  -222.2140 209.5627 149.8792
v  219.4704 232.0505 149.8792
v  -222.2140 232.0505 149.8792
v  219.4704 209.5628 -211.4990
v  -222.2140 209.5628 -211.4990
v  194.1457 232.0505 129.1590
v  -196.8893 232.0505 129.1590
v  219.4704 232.0505 -211.4990
v  -222.2140 232.0505 -211.4990
v  194.1457 220.2414 129.1590
v  -196.8893 220.2414 129.1590
v  194.1457 232.0505 -190.7788
v  -196.8893 232.0505 -190.7788
v  194.1457 220.2414 -190.7788
v  -196.8893 220.2414 -190.7788
# 128 vertices

vn -1.0000 0.0000 -0.0000
vn 0.0000 0.0000 -1.0000
vn 1.0000 0.0000 -0.0000
vn 0.0000 -0.0000 1.0000
vn 0.0000 -1.0000 -0.0000
vn 0.0000 1.0000 -0.0000
vn -0.0000 1.0000 0.0000
vn -0.0000 1.0000 -0.0000
vn 0.0000 1.0000 0.0000
vn 0.0000 0.8837 0.4681
vn -0.0000 -1.0000 -0.0000
# 11 vertex normals

vt 0.8849 0.6255 0.0000
vt 0.9349 0.6255 0.0000
vt 0.9349 0.6755 0.0000
vt 0.8849 0.6755 0.0000
vt 0.9223 0.7264 0.0000
vt 0.0730 0.7264 0.0000
vt 0.0730 0.6011 0.0000
vt 0.9223 0.6011 0.0000
vt 0.8036 0.4068 0.0000
vt 0.8536 0.4068 0.0000
vt 0.8536 0.4568 0.0000
vt 0.8036 0.4568 0.0000
vt 0.3448 0.5250 0.0000
vt 0.3529 0.5168 0.0000
vt 0.3539 0.5174 0.0000
vt 0.3619 0.5250 0.0000
vt 0.3537 0.5159 0.0000
vt 0.3548 0.5165 0.0000
vt 0.3458 0.5083 0.0000
vt 0.3628 0.5083 0.0000
vt 0.5675 0.2455 0.0000
vt 0.4010 0.2455 0.0000
vt 0.4010 0.0178 0.0000
vt 0.5675 0.0178 0.0000
vt 0.3631 0.5090 0.0000
vt 0.3712 0.5008 0.0000
vt 0.3722 0.5015 0.0000
vt 0.3802 0.5090 0.0000
vt 0.3720 0.4999 0.0000
vt 0.3731 0.5006 0.0000
vt 0.3641 0.4924 0.0000
vt 0.3811 0.4924 0.0000
vt 0.5678 0.2451 0.0000
vt 0.4013 0.2451 0.0000
vt 0.4013 0.0174 0.0000
vt 0.5678 0.0174 0.0000
vt 0.3631 0.4750 0.0000
vt 0.3721 0.4831 0.0000
vt 0.3714 0.4843 0.0000
vt 0.3642 0.4924 0.0000
vt 0.3732 0.4843 0.0000
vt 0.3724 0.4851 0.0000
vt 0.3805 0.4760 0.0000
vt 0.3801 0.4924 0.0000
vt 0.5674 0.2448 0.0000
vt 0.4008 0.2448 0.0000
vt 0.4008 0.0171 0.0000
vt 0.5674 0.0171 0.0000
vt 0.3459 0.4917 0.0000
vt 0.3537 0.4992 0.0000
vt 0.3530 0.5000 0.0000
vt 0.3448 0.5083 0.0000
vt 0.3547 0.4998 0.0000
vt 0.3541 0.5010 0.0000
vt 0.3616 0.4917 0.0000
vt 0.3631 0.5083 0.0000
vt 0.5677 0.2452 0.0000
vt 0.4012 0.2452 0.0000
vt 0.4012 0.0176 0.0000
vt 0.5677 0.0176 0.0000
vt 0.3459 0.4750 0.0000
vt 0.3537 0.4825 0.0000
vt 0.3530 0.4833 0.0000
vt 0.3448 0.4917 0.0000
vt 0.3547 0.4832 0.0000
vt 0.3541 0.4843 0.0000
vt 0.3616 0.4750 0.0000
vt 0.3631 0.4917 0.0000
vt 0.5680 0.2456 0.0000
vt 0.4014 0.2456 0.0000
vt 0.4014 0.0180 0.0000
vt 0.5680 0.0180 0.0000
vt 0.4516 0.8793 0.0000
vt 0.5016 0.8793 0.0000
vt 0.5016 0.9293 0.0000
vt 0.4516 0.9293 0.0000
vt 0.5147 0.9028 0.0000
vt 0.5211 0.9051 0.0000
vt 0.5100 0.8981 0.0000
vt 0.5061 0.8905 0.0000
vt 0.5077 0.9028 0.0000
vt 0.5018 0.8976 0.0000
vt 0.4999 0.9063 0.0000
vt 0.4857 0.8910 0.0000
vt 0.4722 0.8863 0.0000
vt 0.5049 0.8902 0.0000
vt 0.4711 0.8856 0.0000
vt 0.5061 0.8856 0.0000
vt 0.5141 0.9025 0.0000
vt 0.4989 0.9063 0.0000
vt 0.9748 0.3092 0.0000
vt 0.8033 0.3092 0.0000
vt 0.8033 0.0174 0.0000
vt 0.9748 0.0174 0.0000
vt 0.5160 0.9034 0.0000
vt 0.4970 0.9104 0.0000
vt 0.2855 0.4047 0.0000
vt 0.3355 0.4047 0.0000
vt 0.3355 0.4547 0.0000
vt 0.2855 0.4547 0.0000
vt 0.3891 0.8852 0.0000
vt 0.4391 0.8852 0.0000
vt 0.4391 0.9352 0.0000
vt 0.3891 0.9352 0.0000
vt 0.6703 0.1215 0.0000
vt 0.7203 0.1215 0.0000
vt 0.7203 0.1715 0.0000
vt 0.6703 0.1715 0.0000
# 108 texture coords

g Building_Music_Store
usemtl Building_Music_Store
s off
f 1/1/1 2/2/1 3/3/1 4/4/1 
f 2/1/2 5/2/2 6/3/2 3/4/2 
f 5/1/3 7/2/3 8/3/3 6/4/3 
f 7/5/4 1/6/4 4/7/4 8/8/4 
f 4/1/5 3/2/5 6/3/5 8/4/5 
s 1
f 1/1/6 7/2/7 9/3/8 10/4/6 
s off
f 10/1/2 9/2/2 11/3/2 12/4/2 
s 1
f 7/1/7 5/2/7 13/3/7 9/4/8 
f 5/1/7 2/2/9 14/3/9 13/4/7 
f 2/1/9 1/2/6 10/3/6 14/4/9 
s off
f 11/1/9 15/2/9 16/3/9 12/4/9 
f 9/1/1 13/2/1 15/3/1 11/4/1 
f 13/1/4 14/2/4 16/3/4 15/4/4 
f 14/1/3 10/2/3 12/3/3 16/4/3 
f 17/9/1 18/10/1 19/11/1 20/12/1 
f 18/9/2 21/10/2 22/11/2 19/12/2 
f 21/9/3 23/10/3 24/11/3 22/12/3 
f 23/9/4 17/10/4 20/11/4 24/12/4 
f 20/9/5 19/10/5 22/11/5 24/12/5 
f 23/9/10 21/10/10 18/11/10 17/12/10 
f 25/9/1 26/10/1 27/11/1 28/12/1 
f 26/9/2 29/10/2 30/11/2 27/12/2 
f 29/9/3 31/10/3 32/11/3 30/12/3 
f 31/9/4 25/10/4 28/11/4 32/12/4 
f 28/9/11 27/10/11 30/11/11 32/12/11 
f 31/9/10 29/10/10 26/11/10 25/12/10 
f 33/9/1 34/10/1 35/11/1 36/12/1 
f 34/9/2 37/10/2 38/11/2 35/12/2 
f 37/9/3 39/10/3 40/11/3 38/12/3 
f 39/9/4 33/10/4 36/11/4 40/12/4 
f 36/9/11 35/10/11 38/11/11 40/12/11 
f 39/9/10 37/10/10 34/11/10 33/12/10 
f 41/13/1 42/14/1 43/15/1 44/16/1 
f 42/14/2 45/17/2 46/18/2 43/15/2 
f 45/17/3 47/19/3 48/20/3 46/18/3 
f 47/21/4 41/22/4 44/23/4 48/24/4 
f 44/16/11 43/15/11 46/18/11 48/20/11 
f 47/19/9 45/17/9 42/14/9 41/13/9 
f 49/25/1 50/26/1 51/27/1 52/28/1 
f 50/26/2 53/29/2 54/30/2 51/27/2 
f 53/29/3 55/31/3 56/32/3 54/30/3 
f 55/33/4 49/34/4 52/35/4 56/36/4 
f 52/28/5 51/27/5 54/30/5 56/32/5 
f 55/31/9 53/29/9 50/26/9 49/25/9 
f 57/37/1 58/38/1 59/39/1 60/40/1 
f 58/38/2 61/41/2 62/42/2 59/39/2 
f 61/41/3 63/43/3 64/44/3 62/42/3 
f 63/45/4 57/46/4 60/47/4 64/48/4 
f 60/40/11 59/39/11 62/42/11 64/44/11 
f 63/43/9 61/41/9 58/38/9 57/37/9 
f 65/49/1 66/50/1 67/51/1 68/52/1 
f 66/50/2 69/53/2 70/54/2 67/51/2 
f 69/53/3 71/55/3 72/56/3 70/54/3 
f 71/57/4 65/58/4 68/59/4 72/60/4 
f 68/52/5 67/51/5 70/54/5 72/56/5 
f 71/55/9 69/53/9 66/50/9 65/49/9 
f 73/61/1 74/62/1 75/63/1 76/64/1 
f 74/62/2 77/65/2 78/66/2 75/63/2 
f 77/65/3 79/67/3 80/68/3 78/66/3 
f 79/69/4 73/70/4 76/71/4 80/72/4 
f 76/64/11 75/63/11 78/66/11 80/68/11 
f 79/67/9 77/65/9 74/62/9 73/61/9 
f 81/73/1 82/74/1 83/75/1 84/76/1 
f 82/73/2 85/74/2 86/75/2 83/76/2 
f 85/73/3 87/74/3 88/75/3 86/76/3 
f 87/73/4 81/74/4 84/75/4 88/76/4 
f 84/73/5 83/74/5 86/75/5 88/76/5 
f 87/73/9 85/74/9 82/75/9 81/76/9 
f 89/77/1 90/78/1 91/79/1 92/80/1 
f 90/78/2 93/81/2 94/82/2 91/79/2 
f 93/81/3 95/83/3 96/84/3 94/82/3 
f 92/80/2 96/84/2 97/85/2 98/86/2 
f 92/80/5 91/79/5 94/82/5 96/84/5 
f 95/83/9 93/81/9 90/78/9 89/77/9 
f 98/86/9 97/85/9 99/87/9 100/88/9 
f 95/83/4 89/77/4 101/89/4 102/90/4 
f 96/84/4 95/83/4 102/90/4 97/85/4 
f 89/77/4 92/80/4 98/86/4 101/89/4 
f 103/91/4 104/92/4 100/93/4 99/94/4 
f 102/90/5 101/89/5 104/95/5 103/96/5 
f 97/85/1 102/90/1 103/96/1 99/87/1 
f 101/89/3 98/86/3 100/88/3 104/95/3 
f 105/97/1 106/98/1 107/99/1 108/100/1 
f 106/97/2 109/98/2 110/99/2 107/100/2 
f 109/97/3 111/98/3 112/99/3 110/100/3 
f 111/97/4 105/98/4 108/99/4 112/100/4 
f 108/97/5 107/98/5 110/99/5 112/100/5 
f 105/101/5 111/102/5 113/103/5 114/104/5 
f 114/101/4 113/102/4 115/103/4 116/104/4 
f 111/101/11 109/102/11 117/103/11 113/104/11 
f 109/101/5 106/102/5 118/103/5 117/104/5 
f 106/101/5 105/102/5 114/103/5 118/104/5 
s 1
f 116/101/7 115/102/9 119/103/9 120/104/7 
s off
f 113/101/3 117/102/3 121/103/3 115/104/3 
f 117/101/2 118/102/2 122/103/2 121/104/2 
f 118/101/1 114/102/1 116/103/1 122/104/1 
f 120/101/2 119/102/2 123/103/2 124/104/2 
s 1
f 115/101/9 121/102/7 125/103/7 119/104/9 
f 121/101/7 122/102/9 126/103/9 125/104/7 
f 122/101/9 116/102/7 120/103/7 126/104/9 
s off
f 123/105/9 127/106/9 128/107/9 124/108/9 
f 119/101/1 125/102/1 127/103/1 123/104/1 
f 125/101/4 126/102/4 128/103/4 127/104/4 
f 126/101/3 120/102/3 124/103/3 128/104/3 
# 104 polygons

