# 3ds Max Wavefront OBJ Exporter v0.97b - (c)2007 guruware
# File Created: 10.03.2017 16:25:35

mtllib Building_Shoes Shop.mtl

#
# object Building_Shoes_Shop
#

v  -223.3098 -42.7475 -148.1040
v  -211.8573 -42.7475 -148.1040
v  -211.8573 -134.8999 -148.1040
v  -223.3098 -134.8999 -148.1040
v  -211.8573 -42.7475 22.3483
v  -211.8573 -134.9000 22.3482
v  -223.3098 -42.7475 22.3483
v  -223.3098 -134.9000 22.3482
v  -223.3098 -130.1113 16.9249
v  -223.3098 -130.1113 -142.6807
v  -221.3091 -130.1113 16.9249
v  -221.3091 -130.1113 -142.6807
v  -223.3098 -47.5362 -142.6807
v  -223.3098 -47.5362 16.9249
v  -221.3091 -47.5362 16.9249
v  -221.3091 -47.5362 -142.6808
v  -20.6695 -42.7476 223.9441
v  -20.6695 -42.7475 212.4916
v  -20.6695 -134.9000 212.4915
v  -20.6695 -134.9000 223.9441
v  149.7828 -42.7475 212.4916
v  149.7828 -134.9000 212.4915
v  149.7828 -42.7475 223.9441
v  149.7828 -134.9000 223.9441
v  144.3595 -130.1113 223.9441
v  -15.2462 -130.1113 223.9441
v  144.3595 -130.1113 221.9434
v  -15.2462 -130.1113 221.9434
v  -15.2462 -47.5362 223.9441
v  144.3595 -47.5362 223.9441
v  144.3595 -47.5362 221.9434
v  -15.2462 -47.5362 221.9434
v  -232.4149 -16.5344 -176.9362
v  -226.5096 -16.1202 -176.9362
v  -212.9935 -16.1202 -176.9362
v  -213.0860 -37.6785 -176.9362
v  -256.7787 -37.6785 -176.9362
v  -256.1971 -33.4727 -176.9362
v  -254.4746 -29.4285 -176.9362
v  -251.6775 -25.7014 -176.9362
v  -247.9131 -22.4345 -176.9362
v  -243.3262 -19.7534 -176.9362
v  -238.0931 -17.7612 -176.9362
v  -232.4149 -16.5344 53.4623
v  -238.0931 -17.7612 53.4623
v  -243.3263 -19.7534 53.4623
v  -247.9131 -22.4345 53.4623
v  -251.6775 -25.7014 53.4623
v  -254.4747 -29.4285 53.4623
v  -256.1971 -33.4727 53.4623
v  -256.7788 -37.6786 53.4623
v  -213.0860 -37.6786 53.4623
v  -212.9935 -16.1202 53.4623
v  -226.5096 -16.1202 53.4623
v  -49.7237 -16.5345 232.4967
v  -49.7237 -16.1202 226.5915
v  -49.7238 -16.1202 213.0754
v  -49.7237 -37.6786 213.1679
v  -49.7237 -37.6786 256.8606
v  -49.7238 -33.4728 256.2790
v  -49.7237 -29.4286 254.5565
v  -49.7237 -25.7014 251.7594
v  -49.7238 -22.4345 247.9950
v  -49.7238 -19.7535 243.4081
v  -49.7238 -17.7613 238.1750
v  180.6748 -16.5345 232.4968
v  180.6748 -17.7613 238.1750
v  180.6748 -19.7535 243.4081
v  180.6748 -22.4345 247.9950
v  180.6748 -25.7014 251.7594
v  180.6748 -29.4286 254.5565
v  180.6748 -33.4728 256.2790
v  180.6748 -37.6786 256.8607
v  180.6748 -37.6786 213.1679
v  180.6748 -16.1202 213.0754
v  180.6748 -16.1202 226.5916
v  216.9026 125.6794 225.3662
v  -84.7599 125.6794 225.3215
v  -225.7888 125.6794 85.2173
v  -225.7888 125.6795 -216.9818
v  216.9026 125.6795 -216.9818
v  216.9026 127.9263 225.3662
v  216.9026 127.9263 -216.9818
v  -225.7888 127.9263 -216.9818
v  -225.7888 127.9263 85.2173
v  -84.7599 127.9263 225.3215
v  216.9026 119.7061 225.3662
v  -84.7599 119.7061 225.3215
v  -225.7888 119.7061 85.2173
v  -225.7888 119.7062 -216.9818
v  216.9026 119.7062 -216.9818
v  216.9026 121.9530 225.3662
v  216.9026 121.9530 -216.9818
v  -225.7888 121.9530 -216.9818
v  -225.7888 121.9530 85.2173
v  -84.7599 121.9530 225.3215
v  216.3296 14.7002 224.7931
v  -84.5510 14.7002 224.7484
v  -225.2143 14.7002 85.0075
v  -225.2143 14.7002 -216.4083
v  216.3296 14.7002 -216.4083
v  216.3296 17.0239 224.7931
v  216.3296 17.0240 -216.4083
v  -225.2143 17.0240 -216.4083
v  -225.2143 17.0240 85.0075
v  -84.5510 17.0239 224.7484
v  216.3296 7.6496 224.7931
v  -84.5510 7.6496 224.7484
v  -225.2143 7.6496 85.0075
v  -225.2143 7.6496 -216.4083
v  216.3296 7.6496 -216.4083
v  216.3296 9.9733 224.7931
v  216.3296 9.9734 -216.4083
v  -225.2143 9.9734 -216.4083
v  -225.2143 9.9733 85.0075
v  -84.5510 9.9733 224.7484
v  -197.0762 -184.0791 124.0864
v  -175.2816 -184.0791 102.2918
v  -175.2816 -190.0728 102.2917
v  -197.0762 -190.0728 124.0864
v  -102.1694 -184.0792 175.4039
v  -102.1694 -190.0729 175.4039
v  -123.9641 -184.0792 197.1986
v  -123.9641 -190.0729 197.1986
v  -193.5302 -37.9512 121.1018
v  -179.1897 -37.9512 106.7613
v  -179.1897 -189.9232 106.7613
v  -193.5302 -189.9232 121.1018
v  -106.6389 -37.9513 179.3121
v  -106.6389 -189.9232 179.3121
v  -120.9794 -37.9512 193.6526
v  -120.9794 -189.9232 193.6526
v  -126.8975 -189.9262 187.7345
v  -187.4700 -189.9261 127.1621
v  -124.8580 -189.9262 185.6950
v  -185.4305 -189.9262 125.1226
v  -187.4700 -46.3974 127.1621
v  -126.8975 -46.3974 187.7346
v  -124.8580 -46.3975 185.6951
v  -185.4305 -46.3975 125.1226
v  215.1758 0.9821 223.6390
v  -84.1302 0.9821 223.5946
v  -224.0574 0.9821 84.5850
v  -224.0574 0.9821 -215.2534
v  215.1758 0.9821 -215.2534
v  215.1758 24.6134 223.6390
v  215.1758 24.6135 -215.2534
v  -224.0574 24.6135 -215.2534
v  -224.0574 24.6135 84.5850
v  -84.1302 24.6134 223.5946
v  215.1758 -190.0777 223.6389
v  -84.1302 -190.0777 223.5945
v  -224.0574 -190.0777 84.5849
v  -224.0574 -190.0776 -215.2534
v  215.1757 -190.0776 -215.2534
v  215.1758 -166.4463 223.6389
v  215.1757 -166.4463 -215.2534
v  -224.0574 -166.4463 -215.2534
v  -224.0574 -166.4463 84.5849
v  -84.1302 -166.4463 223.5945
v  212.5571 -189.5358 221.1003
v  -82.7518 -189.5358 221.0564
v  -220.8104 -189.5358 83.9032
v  -220.8104 -189.5358 -211.9310
v  212.5570 -189.5358 -211.9310
v  -82.7518 109.1374 221.0565
v  212.5571 109.1374 221.1003
v  217.2068 109.1374 225.1148
v  -84.0102 109.1374 225.0701
v  -82.7518 24.4997 221.0565
v  212.5571 24.4997 221.1003
v  212.5570 24.4998 -211.9310
v  212.5570 109.1374 -211.9310
v  -220.8104 24.4998 -211.9310
v  -220.8104 109.1374 -211.9310
v  -220.8103 24.4998 83.9032
v  -220.8104 109.1374 83.9032
v  217.2068 138.9409 225.1148
v  -84.0102 138.9409 225.0701
v  217.2068 109.1374 -216.5799
v  -224.8309 109.1374 -216.5799
v  -224.8309 109.1374 85.1729
v  175.7019 138.9409 189.2797
v  -72.7772 138.9409 189.2428
v  217.2068 138.9410 -216.5799
v  -224.8309 138.9410 -216.5799
v  -224.8309 138.9409 85.1729
v  175.7019 129.6695 189.2797
v  -72.7772 129.6695 189.2428
v  175.7019 138.9410 -175.0819
v  -188.9425 138.9410 -175.0819
v  -188.9426 138.9409 73.8392
v  175.7019 129.6695 -175.0819
v  -188.9425 129.6696 -175.0819
v  -188.9426 129.6695 73.8392
# 195 vertices

vn 0.0000 0.0000 -1.0000
vn 1.0000 -0.0000 0.0000
vn 0.0000 -0.0000 1.0000
vn -1.0000 -0.0000 -0.0000
vn 0.0000 -1.0000 -0.0000
vn 0.0000 1.0000 0.0000
vn -1.0000 0.0000 -0.0000
vn -1.0000 0.0000 0.0000
vn 0.0000 -0.0000 -1.0000
vn 1.0000 0.0000 -0.0000
vn -0.0000 -0.0000 1.0000
vn -0.0000 1.0000 0.0000
vn -0.0000 0.0000 1.0000
vn -0.0000 -0.0000 -1.0000
vn -0.0700 0.9975 0.0000
vn -0.2112 0.9774 0.0000
vn -0.3558 0.9346 0.0000
vn -0.5046 0.8633 0.0000
vn -0.6554 0.7552 0.0000
vn -0.7998 0.6002 -0.0000
vn -0.9200 0.3919 -0.0000
vn -0.9906 0.1370 -0.0000
vn 1.0000 -0.0043 -0.0000
vn -1.0000 -0.0000 0.0000
vn -0.0000 0.9975 0.0700
vn -0.0000 0.9774 0.2112
vn -0.0000 0.9346 0.3558
vn -0.0000 0.8633 0.5046
vn -0.0000 0.7552 0.6554
vn -0.0000 0.6002 0.7998
vn -0.0000 0.3919 0.9200
vn -0.0000 0.1370 0.9906
vn 0.0000 -0.0043 -1.0000
vn -0.0000 -1.0000 -0.0000
vn -0.7048 -0.0000 0.7094
vn -0.0001 -0.0000 1.0000
vn -0.7071 0.0000 -0.7071
vn 0.7071 0.0000 -0.7071
vn 0.7071 -0.0000 0.7071
vn -0.7071 -0.0000 0.7071
vn 0.7071 -0.0013 -0.7071
vn 0.0000 1.0000 -0.0000
vn -0.7071 0.0000 0.7071
vn -0.0000 -1.0000 0.0000
vn -0.7048 0.0000 0.7094
vn 0.0001 -0.0000 -1.0000
vn 0.7048 0.0000 -0.7094
# 47 vertex normals

vt 0.6863 0.4127 0.0000
vt 0.6855 0.4120 0.0000
vt 0.6852 0.4077 0.0000
vt 0.6860 0.4070 0.0000
vt 0.6784 0.4120 0.0000
vt 0.6781 0.4077 0.0000
vt 0.6777 0.4127 0.0000
vt 0.6773 0.4070 0.0000
vt 0.6769 0.4066 0.0000
vt 0.6863 0.4066 0.0000
vt 0.6768 0.4065 0.0000
vt 0.6864 0.4065 0.0000
vt 0.6867 0.4131 0.0000
vt 0.6773 0.4131 0.0000
vt 0.6289 0.2121 0.0000
vt 0.6728 0.2121 0.0000
vt 0.6728 0.2371 0.0000
vt 0.6289 0.2371 0.0000
vt 0.6868 0.4132 0.0000
vt 0.6772 0.4132 0.0000
vt 0.6773 0.4002 0.0000
vt 0.6781 0.4009 0.0000
vt 0.6784 0.4053 0.0000
vt 0.6777 0.4060 0.0000
vt 0.6852 0.4010 0.0000
vt 0.6855 0.4053 0.0000
vt 0.6860 0.4003 0.0000
vt 0.6863 0.4060 0.0000
vt 0.6867 0.4063 0.0000
vt 0.6773 0.4064 0.0000
vt 0.6868 0.4065 0.0000
vt 0.6772 0.4065 0.0000
vt 0.6769 0.3999 0.0000
vt 0.6863 0.3999 0.0000
vt 0.6289 0.1871 0.0000
vt 0.6728 0.1871 0.0000
vt 0.6768 0.3998 0.0000
vt 0.6864 0.3998 0.0000
vt 0.6720 0.4339 0.0000
vt 0.6720 0.4344 0.0000
vt 0.6720 0.4062 0.0000
vt 0.6720 0.4117 0.0000
vt 0.6720 0.4170 0.0000
vt 0.6720 0.4219 0.0000
vt 0.6720 0.4262 0.0000
vt 0.6720 0.4297 0.0000
vt 0.6720 0.4323 0.0000
vt 0.9739 0.4339 0.0000
vt 0.9739 0.4323 0.0000
vt 0.9739 0.4297 0.0000
vt 0.9739 0.4262 0.0000
vt 0.9739 0.4219 0.0000
vt 0.9739 0.4170 0.0000
vt 0.9739 0.4117 0.0000
vt 0.9739 0.4062 0.0000
vt 0.9739 0.4344 0.0000
vt 0.6734 0.4305 0.0000
vt 0.6734 0.4310 0.0000
vt 0.6734 0.4030 0.0000
vt 0.6734 0.4085 0.0000
vt 0.6734 0.4137 0.0000
vt 0.6734 0.4186 0.0000
vt 0.6734 0.4228 0.0000
vt 0.6734 0.4263 0.0000
vt 0.6734 0.4289 0.0000
vt 0.9728 0.4305 0.0000
vt 0.9728 0.4289 0.0000
vt 0.9728 0.4263 0.0000
vt 0.9728 0.4228 0.0000
vt 0.9728 0.4186 0.0000
vt 0.9728 0.4137 0.0000
vt 0.9728 0.4085 0.0000
vt 0.9728 0.4030 0.0000
vt 0.9728 0.4310 0.0000
vt 0.1686 0.1967 0.0000
vt 0.1924 0.1794 0.0000
vt 0.1833 0.1515 0.0000
vt 0.1540 0.1515 0.0000
vt 0.1449 0.1794 0.0000
vt 0.1436 0.1467 0.0000
vt 0.1936 0.1467 0.0000
vt 0.1936 0.1967 0.0000
vt 0.1436 0.1967 0.0000
vt 0.6742 0.4242 0.0000
vt 0.6852 0.4242 0.0000
vt 0.6852 0.4352 0.0000
vt 0.6742 0.4352 0.0000
vt 0.6791 0.4345 0.0000
vt 0.6780 0.4345 0.0000
vt 0.6802 0.4342 0.0000
vt 0.6818 0.4344 0.0000
vt 0.6795 0.4336 0.0000
vt 0.6807 0.4337 0.0000
vt 0.6798 0.4327 0.0000
vt 0.6823 0.4332 0.0000
vt 0.6848 0.4329 0.0000
vt 0.6828 0.4341 0.0000
vt 0.6872 0.4321 0.0000
vt 0.6830 0.4347 0.0000
vt 0.6792 0.4345 0.0000
vt 0.6799 0.4325 0.0000
vt 0.9773 0.3085 0.0000
vt 0.8030 0.3085 0.0000
vt 0.8030 0.0165 0.0000
vt 0.9773 0.0165 0.0000
vt 0.6790 0.4347 0.0000
vt 0.6797 0.4319 0.0000
vt 0.4926 0.9187 0.0000
vt 0.5164 0.9015 0.0000
vt 0.5073 0.8735 0.0000
vt 0.4779 0.8735 0.0000
vt 0.4688 0.9015 0.0000
vt 0.4676 0.8687 0.0000
vt 0.5176 0.8687 0.0000
vt 0.5176 0.9187 0.0000
vt 0.4676 0.9187 0.0000
vt 0.3499 0.9360 0.0000
vt 0.3737 0.9187 0.0000
vt 0.3646 0.8907 0.0000
vt 0.3352 0.8907 0.0000
vt 0.3261 0.9187 0.0000
vt 0.3249 0.8860 0.0000
vt 0.3749 0.8860 0.0000
vt 0.3749 0.9360 0.0000
vt 0.3249 0.9360 0.0000
vt 0.3662 0.2800 0.0000
vt 0.3362 0.2800 0.0000
vt 0.3082 0.2800 0.0000
vt 0.2781 0.2800 0.0000
vt 0.3222 0.2800 0.0000
vt 0.5574 0.8889 0.0000
vt 0.5965 0.8889 0.0000
vt 0.5976 0.8889 0.0000
vt 0.5578 0.8889 0.0000
vt 0.3362 0.3015 0.0000
vt 0.3662 0.3015 0.0000
vt 0.3662 0.3230 0.0000
vt 0.3362 0.3230 0.0000
vt 0.3222 0.3015 0.0000
vt 0.3222 0.3230 0.0000
vt 0.2781 0.3015 0.0000
vt 0.2781 0.3230 0.0000
vt 0.3082 0.3015 0.0000
vt 0.3082 0.3230 0.0000
vt 0.5976 0.8944 0.0000
vt 0.5578 0.8944 0.0000
vt 0.5392 0.8889 0.0000
vt 0.4820 0.8889 0.0000
vt 0.4808 0.8889 0.0000
vt 0.5211 0.8889 0.0000
vt 0.5207 0.8889 0.0000
vt 0.5874 0.8944 0.0000
vt 0.5546 0.8944 0.0000
vt 0.5392 0.8944 0.0000
vt 0.4808 0.8944 0.0000
vt 0.5207 0.8944 0.0000
vt 0.5874 0.8916 0.0000
vt 0.5546 0.8916 0.0000
vt 0.4910 0.8944 0.0000
vt 0.5239 0.8944 0.0000
vt 0.0725 0.1780 0.0000
vt 0.0799 0.1780 0.0000
vt 0.0690 0.1780 0.0000
vt 0.0581 0.1780 0.0000
vt 0.0655 0.1780 0.0000
vt 0.5392 0.8916 0.0000
vt 0.4910 0.8916 0.0000
vt 0.5239 0.8916 0.0000
vt 0.1044 0.7260 0.0000
vt 0.1044 0.5193 0.0000
vt 0.5797 0.5193 0.0000
vt 0.5797 0.7260 0.0000
# 172 texture coords

g Building_Shoes_Shop
usemtl Building_Shoes_Shop
s off
f 1/1/1 2/2/1 3/3/1 4/4/1 
f 2/2/2 5/5/2 6/6/2 3/3/2 
f 5/5/3 7/7/3 8/8/3 6/6/3 
f 4/4/4 8/8/4 9/9/4 10/10/4 
f 4/4/5 3/3/5 6/6/5 8/8/5 
f 7/7/6 5/5/6 2/2/6 1/1/6 
f 10/10/6 9/9/6 11/11/6 12/12/6 
s 1
f 7/7/7 1/1/7 13/13/7 14/14/7 
s off
f 8/8/8 7/7/8 14/14/8 9/9/8 
s 1
f 1/1/7 4/4/7 10/10/7 13/13/7 
s off
f 15/15/7 16/16/7 12/17/7 11/18/7 
f 14/14/5 13/13/5 16/19/5 15/20/5 
f 9/9/9 14/14/9 15/20/9 11/11/9 
f 13/13/3 10/10/3 12/12/3 16/19/3 
f 17/21/7 18/22/7 19/23/7 20/24/7 
f 18/22/1 21/25/1 22/26/1 19/23/1 
f 21/25/10 23/27/10 24/28/10 22/26/10 
s 1
f 20/24/11 24/28/3 25/29/3 26/30/11 
s off
f 20/24/5 19/23/5 22/26/5 24/28/5 
f 23/27/12 21/25/12 18/22/12 17/21/12 
f 26/30/12 25/29/12 27/31/12 28/32/12 
f 23/27/13 17/21/13 29/33/13 30/34/13 
f 24/28/3 23/27/3 30/34/3 25/29/3 
s 1
f 17/21/11 20/24/11 26/30/11 29/33/11 
s off
f 31/16/3 32/15/3 28/35/3 27/36/3 
f 30/34/5 29/33/5 32/37/5 31/38/5 
f 25/29/7 30/34/7 31/38/7 27/31/7 
f 29/33/10 26/30/10 28/32/10 32/37/10 
f 33/39/14 34/40/14 35/40/14 36/41/14 
f 33/39/1 36/41/1 37/41/1 38/42/1 
f 33/39/1 38/42/1 39/43/1 40/44/1 
f 33/39/1 40/44/1 41/45/1 42/46/1 
f 33/39/1 42/46/1 43/47/1 
f 44/48/13 45/49/13 46/50/13 47/51/13 
f 44/48/13 47/51/13 48/52/13 49/53/13 
f 44/48/11 49/53/11 50/54/11 51/55/11 
f 44/48/3 51/55/3 52/55/3 53/56/3 
f 44/48/3 53/56/3 54/56/3 
f 34/40/15 33/39/15 44/48/15 54/56/15 
f 33/39/16 43/47/16 45/49/16 44/48/16 
f 43/47/17 42/46/17 46/50/17 45/49/17 
f 42/46/18 41/45/18 47/51/18 46/50/18 
f 41/45/19 40/44/19 48/52/19 47/51/19 
f 40/44/20 39/43/20 49/53/20 48/52/20 
f 39/43/21 38/42/21 50/54/21 49/53/21 
f 38/42/22 37/41/22 51/55/22 50/54/22 
f 35/40/12 34/40/12 54/56/12 53/56/12 
f 37/41/5 36/41/5 52/55/5 51/55/5 
f 36/41/23 35/40/23 53/56/23 52/55/23 
f 55/57/24 56/58/24 57/58/24 58/59/24 
f 55/57/4 58/59/4 59/59/4 60/60/4 
f 55/57/8 60/60/8 61/61/8 62/62/8 
f 55/57/4 62/62/4 63/63/4 64/64/4 
f 55/57/4 64/64/4 65/65/4 
f 66/66/10 67/67/10 68/68/10 69/69/10 
f 66/66/10 69/69/10 70/70/10 71/71/10 
f 66/66/10 71/71/10 72/72/10 73/73/10 
f 66/66/10 73/73/10 74/73/10 75/74/10 
f 66/66/10 75/74/10 76/74/10 
f 56/58/25 55/57/25 66/66/25 76/74/25 
f 55/57/26 65/65/26 67/67/26 66/66/26 
f 65/65/27 64/64/27 68/68/27 67/67/27 
f 64/64/28 63/63/28 69/69/28 68/68/28 
f 63/63/29 62/62/29 70/70/29 69/69/29 
f 62/62/30 61/61/30 71/71/30 70/70/30 
f 61/61/31 60/60/31 72/72/31 71/71/31 
f 60/60/32 59/59/32 73/73/32 72/72/32 
f 57/58/12 56/58/12 76/74/12 75/74/12 
f 59/59/5 58/59/5 74/73/5 73/73/5 
f 58/59/33 57/58/33 75/74/33 74/73/33 
f 77/75/5 78/76/5 79/77/5 80/78/5 
f 77/75/34 80/78/34 81/79/34 
f 82/75/6 83/76/6 84/77/6 85/78/6 
f 82/75/6 85/78/6 86/79/6 
f 79/80/35 78/81/35 86/82/35 85/83/35 
f 80/80/7 79/81/7 85/82/7 84/83/7 
f 81/80/1 80/81/1 84/82/1 83/83/1 
f 77/80/10 81/81/10 83/82/10 82/83/10 
f 78/80/36 77/81/36 82/82/36 86/83/36 
f 87/75/5 88/76/5 89/77/5 90/78/5 
f 87/75/34 90/78/34 91/79/34 
f 92/75/12 93/76/12 94/77/12 95/78/12 
f 92/75/6 95/78/6 96/79/6 
f 89/80/35 88/81/35 96/82/35 95/83/35 
f 90/80/7 89/81/7 95/82/7 94/83/7 
f 91/80/1 90/81/1 94/82/1 93/83/1 
f 87/80/10 91/81/10 93/82/10 92/83/10 
f 88/80/36 87/81/36 92/82/36 96/83/36 
f 97/75/34 98/76/34 99/77/34 100/78/34 
f 97/75/5 100/78/5 101/79/5 
f 102/75/12 103/76/12 104/77/12 105/78/12 
f 102/75/6 105/78/6 106/79/6 
f 99/80/35 98/81/35 106/82/35 105/83/35 
f 100/80/7 99/81/7 105/82/7 104/83/7 
f 101/80/1 100/81/1 104/82/1 103/83/1 
f 97/80/10 101/81/10 103/82/10 102/83/10 
f 98/80/36 97/81/36 102/82/36 106/83/36 
f 107/75/5 108/76/5 109/77/5 110/78/5 
f 107/75/5 110/78/5 111/79/5 
f 112/75/12 113/76/12 114/77/12 115/78/12 
f 112/75/6 115/78/6 116/79/6 
f 109/80/35 108/81/35 116/82/35 115/83/35 
f 110/80/7 109/81/7 115/82/7 114/83/7 
f 111/80/1 110/81/1 114/82/1 113/83/1 
f 107/80/10 111/81/10 113/82/10 112/83/10 
f 108/80/36 107/81/36 112/82/36 116/83/36 
f 117/84/37 118/85/37 119/86/37 120/87/37 
f 118/84/38 121/85/38 122/86/38 119/87/38 
f 121/84/39 123/85/39 124/86/39 122/87/39 
f 123/84/40 117/85/40 120/86/40 124/87/40 
f 120/84/5 119/85/5 122/86/5 124/87/5 
f 123/84/6 121/85/6 118/86/6 117/87/6 
f 125/88/37 126/89/37 127/90/37 128/91/37 
f 126/89/38 129/92/38 130/93/38 127/90/38 
f 129/92/39 131/94/39 132/95/39 130/93/39 
f 128/91/41 132/95/41 133/96/41 134/97/41 
f 128/91/5 127/90/5 130/93/5 132/95/5 
f 131/94/42 129/92/42 126/89/42 125/88/42 
f 134/97/42 133/96/42 135/98/42 136/99/42 
f 131/94/40 125/88/40 137/100/40 138/101/40 
f 132/95/40 131/94/40 138/101/40 133/96/40 
f 125/88/43 128/91/43 134/97/43 137/100/43 
f 139/102/40 140/103/40 136/104/40 135/105/40 
f 138/101/44 137/100/44 140/106/44 139/107/44 
f 133/96/37 138/101/37 139/107/37 135/98/37 
f 137/100/39 134/97/39 136/99/39 140/106/39 
f 141/108/34 142/109/34 143/110/34 144/111/34 
f 141/108/5 144/111/5 145/112/5 
f 146/108/12 147/109/12 148/110/12 149/111/12 
f 146/108/6 149/111/6 150/112/6 
f 143/113/35 142/114/35 150/115/35 149/116/35 
f 144/113/7 143/114/7 149/115/7 148/116/7 
f 145/113/1 144/114/1 148/115/1 147/116/1 
f 141/113/10 145/114/10 147/115/10 146/116/10 
f 142/113/36 141/114/36 146/115/36 150/116/36 
f 151/117/5 152/118/5 153/119/5 154/120/5 
f 151/117/34 154/120/34 155/121/34 
f 156/117/12 157/118/12 158/119/12 159/120/12 
f 156/117/12 159/120/12 160/121/12 
f 153/122/35 152/123/35 160/124/35 159/125/35 
f 154/122/7 153/123/7 159/124/7 158/125/7 
f 155/122/1 154/123/1 158/124/1 157/125/1 
f 151/122/10 155/123/10 157/124/10 156/125/10 
f 152/122/36 151/123/36 156/124/36 160/125/36 
f 161/126/5 162/127/5 163/128/5 164/129/5 
f 161/126/5 164/129/5 165/130/5 
f 166/131/5 167/132/5 168/133/5 169/134/5 
s 1
f 170/135/36 171/136/36 167/137/36 166/138/36 
s 2
f 171/136/10 172/139/10 173/140/10 167/137/10 
s 1
f 172/139/1 174/141/1 175/142/1 173/140/1 
s 2
f 174/141/24 176/143/24 177/144/24 175/142/7 
s 4
f 176/143/35 163/128/45 162/127/35 170/135/35 
s off
f 169/134/36 168/133/36 178/145/36 179/146/36 
s 8
f 167/132/34 173/147/5 180/147/5 168/133/34 
f 173/147/5 175/148/34 181/149/34 180/147/5 
f 175/148/34 177/150/5 182/151/5 181/149/34 
f 177/150/5 166/131/5 169/134/5 182/151/5 
s 1
f 179/146/12 178/145/6 183/152/6 184/153/12 
s off
f 168/133/10 180/147/10 185/154/10 178/145/10 
f 180/147/1 181/149/1 186/155/1 185/154/1 
f 181/149/7 182/151/7 187/156/7 186/155/7 
f 182/151/35 169/134/35 179/146/35 187/156/35 
f 184/153/46 183/152/46 188/157/46 189/158/46 
s 1
f 178/145/6 185/154/6 190/154/6 183/152/6 
f 185/154/6 186/155/6 191/159/6 190/154/6 
f 186/155/6 187/156/12 192/160/12 191/159/6 
f 187/156/12 179/146/12 184/153/12 192/160/12 
s off
f 189/161/6 188/162/6 193/163/6 194/164/6 
f 189/161/12 194/164/12 195/165/12 
f 183/152/8 190/154/8 193/166/8 188/157/8 
f 190/154/3 191/159/3 194/167/3 193/166/3 
f 191/159/2 192/160/2 195/168/2 194/167/2 
f 192/160/47 184/153/47 189/158/47 195/168/47 
s 4
f 177/169/35 176/170/35 170/171/35 166/172/35 
s 2
f 164/129/8 163/128/8 176/143/24 174/141/24 
s 1
f 165/130/1 164/129/1 174/141/1 172/139/1 
s 2
f 161/126/10 165/130/10 172/139/10 171/136/10 
s 1
f 162/127/36 161/126/36 171/136/36 170/135/36 
# 160 polygons - 18 triangles

