# 3ds Max Wavefront OBJ Exporter v0.97b - (c)2007 guruware
# File Created: 10.03.2017 15:58:47

mtllib Building Sky_big_color01.mtl

#
# object Building_Sky_big_color01
#

v  456.2385 40.1208 -465.4067
v  641.6071 40.1209 -465.4067
v  641.6071 0.0000 -465.4067
v  456.2385 -0.0000 -465.4067
v  315.1646 40.1208 -465.4067
v  315.1646 -0.0000 -465.4067
v  456.2385 922.8618 -465.4066
v  641.6071 922.8618 -465.4066
v  641.6071 40.1209 -32.3358
v  641.6071 -0.0000 -32.3358
v  456.2385 -0.0001 -32.3358
v  129.7961 40.1209 -465.4067
v  129.7961 0.0000 -465.4067
v  315.1646 922.8618 -465.4066
v  315.1646 -0.0001 -32.3358
v  456.2385 954.3865 -465.4066
v  641.6071 954.3865 -465.4066
v  641.6071 922.8617 -32.3357
v  456.2385 40.1208 -32.3358
v  129.7960 40.1209 -32.3358
v  129.7960 -0.0000 -32.3358
v  129.7961 922.8618 -465.4066
v  315.1646 954.3865 -465.4066
v  456.2385 -0.0001 -4.6763
v  444.7567 -0.0001 -4.6763
v  444.7567 -0.0001 -7.0993
v  326.6465 -0.0001 -7.0993
v  326.6465 -0.0001 -4.6763
v  315.1646 -0.0001 -4.6763
v  641.6071 954.3864 -32.3357
v  459.8182 954.3865 -477.0974
v  654.5940 954.3865 -477.0974
v  480.1898 866.1417 -32.3357
v  617.9850 866.1417 -32.3357
v  456.2385 922.8618 -32.3357
v  480.1898 787.4016 -32.3357
v  480.1898 728.3465 -32.3357
v  480.1898 649.6063 -32.3357
v  480.1898 590.5511 -32.3357
v  480.1898 511.8109 -32.3358
v  480.1898 452.7559 -32.3358
v  480.1898 374.0157 -32.3358
v  480.1898 314.9606 -32.3358
v  480.1898 102.6718 -32.3358
v  480.1898 181.4120 -32.3358
v  480.1898 236.2205 -32.3358
v  617.9850 236.2205 -32.3358
v  617.9850 181.4120 -32.3358
v  617.9850 102.6718 -32.3358
v  617.9850 314.9606 -32.3358
v  617.9850 374.0157 -32.3357
v  617.9850 787.4016 -32.3357
v  617.9850 728.3465 -32.3357
v  617.9850 649.6063 -32.3357
v  617.9850 590.5511 -32.3357
v  617.9850 511.8109 -32.3357
v  617.9850 452.7559 -32.3357
v  456.2385 40.1208 -4.6763
v  315.1646 40.1208 -32.3358
v  129.7960 922.8617 -32.3357
v  129.7961 954.3865 -465.4066
v  311.5850 954.3865 -477.0974
v  315.1646 40.1208 -4.6763
v  444.7567 40.1208 -4.6763
v  326.6465 40.1208 -4.6763
v  456.2385 954.3865 -32.3357
v  654.5940 954.3864 -22.0486
v  459.8182 976.4701 -477.0974
v  654.5940 976.4700 -477.0974
v  456.2385 922.8618 -4.6762
v  153.4180 866.1417 -32.3357
v  291.2133 866.1417 -32.3357
v  315.1646 922.8618 -32.3357
v  153.4180 787.4016 -32.3357
v  153.4180 728.3465 -32.3358
v  153.4180 649.6063 -32.3357
v  153.4180 590.5511 -32.3358
v  153.4180 511.8110 -32.3358
v  153.4180 452.7559 -32.3358
v  153.4180 102.5758 -32.3358
v  153.4180 181.3160 -32.3358
v  153.4180 236.2205 -32.3358
v  153.4180 314.9606 -32.3358
v  153.4180 374.0157 -32.3358
v  291.2133 102.5758 -32.3358
v  291.2133 181.3160 -32.3358
v  291.2133 236.2205 -32.3358
v  291.2133 787.4016 -32.3357
v  291.2133 728.3465 -32.3357
v  291.2133 649.6063 -32.3357
v  291.2133 590.5511 -32.3357
v  291.2133 511.8110 -32.3358
v  291.2133 452.7559 -32.3358
v  291.2133 374.0157 -32.3358
v  291.2133 314.9606 -32.3358
v  129.7960 954.3864 -32.3357
v  116.8091 954.3865 -477.0974
v  311.5850 976.4701 -477.0974
v  315.1646 922.8618 -4.6762
v  326.6465 157.4803 -4.6763
v  346.3315 267.2497 -4.6762
v  346.3315 314.4938 -4.6762
v  346.3315 406.4211 -4.6762
v  346.3315 865.9763 -4.6762
v  425.0717 865.9763 -4.6762
v  346.3315 818.7322 -4.6762
v  346.3315 729.1755 -4.6762
v  346.3315 681.9313 -4.6762
v  346.3315 590.0582 -4.6762
v  346.3315 542.8140 -4.6762
v  346.3315 453.6652 -4.6762
v  444.7567 157.4803 -4.6763
v  425.0717 818.7322 -4.6762
v  425.0717 729.1755 -4.6762
v  425.0717 681.9313 -4.6762
v  425.0717 590.0582 -4.6762
v  425.0717 542.8140 -4.6762
v  425.0717 453.6652 -4.6762
v  425.0717 406.4211 -4.6762
v  425.0717 314.4938 -4.6762
v  425.0717 267.2497 -4.6762
v  456.2385 954.3865 -4.6761
v  459.8181 954.3865 -22.0486
v  654.5940 976.4700 -22.0486
v  454.1719 976.4701 -458.6573
v  634.1094 976.4700 -458.6572
v  315.1646 954.3865 -32.3357
v  116.8091 954.3864 -22.0486
v  116.8091 976.4700 -477.0974
v  317.2313 976.4701 -458.6573
v  315.1646 954.3865 -4.6761
v  459.8181 954.3865 7.0147
v  459.8181 976.4700 -22.0486
v  634.1094 976.4700 -38.2746
v  454.1719 962.0684 -458.6573
v  634.1094 962.0684 -458.6572
v  311.5849 954.3865 -22.0486
v  116.8091 976.4700 -22.0486
v  137.2936 976.4700 -458.6573
v  317.2313 962.0684 -458.6573
v  311.5849 954.3865 7.0147
v  459.8181 976.4700 7.0147
v  448.1711 976.4700 -38.2747
v  634.1094 962.0683 -38.2746
v  448.1711 962.0684 -38.2747
v  311.5849 976.4700 -22.0486
v  137.2936 976.4700 -38.2747
v  137.2936 962.0684 -458.6573
v  322.5652 962.0684 -38.2747
v  311.5849 976.4700 7.0147
v  448.1711 976.4700 -11.4255
v  322.5652 976.4700 -38.2747
v  137.2936 962.0683 -38.2747
v  322.5652 962.0684 -11.4255
v  448.1711 962.0684 -11.4255
v  322.5652 976.4700 -11.4255
v  444.7567 157.4803 -7.0993
v  326.6465 157.4803 -7.0993
v  346.3315 865.9763 -7.0391
v  346.3315 818.7322 -7.0391
v  425.0717 818.7322 -7.0391
v  425.0717 865.9763 -7.0391
v  346.3315 729.1755 -7.0392
v  346.3315 681.9314 -7.0391
v  425.0717 681.9314 -7.0391
v  425.0717 729.1755 -7.0392
v  346.3315 590.0582 -7.0391
v  346.3315 542.8140 -7.0392
v  425.0717 542.8140 -7.0392
v  425.0717 590.0582 -7.0391
v  346.3315 453.6652 -7.0392
v  346.3315 406.4211 -7.0392
v  425.0717 406.4211 -7.0392
v  425.0717 453.6652 -7.0392
v  346.3315 314.4938 -7.0392
v  346.3315 267.2497 -7.0392
v  425.0717 267.2497 -7.0392
v  425.0717 314.4938 -7.0392
v  153.4180 866.1417 -35.1534
v  153.4180 787.4016 -35.1534
v  291.2133 787.4016 -35.1534
v  291.2133 866.1417 -35.1534
v  153.4180 728.3464 -35.1535
v  153.4180 649.6063 -35.1534
v  291.2133 649.6063 -35.1534
v  291.2133 728.3464 -35.1534
v  153.4180 590.5511 -35.1534
v  153.4180 511.8110 -35.1535
v  291.2133 511.8110 -35.1534
v  291.2133 590.5511 -35.1534
v  153.4180 452.7559 -35.1535
v  153.4180 374.0157 -35.1535
v  291.2133 374.0157 -35.1535
v  291.2133 452.7559 -35.1535
v  153.4180 314.9606 -35.1535
v  153.4180 236.2205 -35.1535
v  291.2133 236.2205 -35.1535
v  291.2133 314.9606 -35.1535
v  153.4180 181.3160 -35.1535
v  153.4180 102.5758 -35.1535
v  291.2133 102.5758 -35.1535
v  291.2133 181.3160 -35.1535
v  480.1898 866.1417 -35.1534
v  480.1898 787.4016 -35.1534
v  617.9850 787.4016 -35.1534
v  617.9850 866.1417 -35.1534
v  480.1898 728.3464 -35.1534
v  480.1898 649.6063 -35.1534
v  617.9850 649.6063 -35.1534
v  617.9850 728.3464 -35.1534
v  480.1898 590.5511 -35.1534
v  480.1898 511.8109 -35.1534
v  617.9850 511.8109 -35.1534
v  617.9850 590.5511 -35.1534
v  480.1898 452.7559 -35.1535
v  480.1898 374.0157 -35.1535
v  617.9850 374.0157 -35.1534
v  617.9850 452.7559 -35.1534
v  480.1898 314.9606 -35.1535
v  480.1898 236.2205 -35.1535
v  617.9850 236.2205 -35.1535
v  617.9850 314.9606 -35.1535
v  480.1898 181.4120 -35.1535
v  480.1898 102.6718 -35.1535
v  617.9850 102.6718 -35.1535
v  617.9850 181.4120 -35.1535
# 226 vertices

vn 0.0000 0.0000 -1.0000
vn 1.0000 -0.0000 0.0000
vn 0.0000 -1.0000 -0.0000
vn -0.0000 -1.0000 -0.0000
vn -0.0000 -0.0000 1.0000
vn -1.0000 0.0000 -0.0000
vn 0.0000 -0.0000 1.0000
vn 1.0000 0.0000 -0.0000
vn -0.0000 0.0000 1.0000
vn 0.0000 0.0000 1.0000
vn 0.0000 1.0000 0.0000
vn -0.0000 1.0000 0.0000
vn 0.0000 1.0000 -0.0000
vn -0.0000 1.0000 -0.0000
vn 1.0000 0.0000 0.0000
vn -0.0000 -1.0000 0.0000
vn -1.0000 -0.0000 -0.0000
# 17 vertex normals

vt 0.0652 0.6169 0.0000
vt 0.1152 0.6169 0.0000
vt 0.1152 0.6669 0.0000
vt 0.0652 0.6669 0.0000
vt 0.4750 0.4750 0.0000
vt 0.5250 0.4750 0.0000
vt 0.5250 0.5250 0.0000
vt 0.4750 0.5250 0.0000
vt 0.1078 0.6595 0.0000
vt 0.1152 0.6419 0.0000
vt 0.1078 0.6242 0.0000
vt 0.0902 0.6169 0.0000
vt 0.0902 0.6669 0.0000
vt 0.0725 0.6242 0.0000
vt 0.0652 0.6419 0.0000
vt 0.0725 0.6595 0.0000
vt 0.5000 0.4750 0.0000
vt 0.4904 0.4769 0.0000
vt 0.4823 0.4823 0.0000
vt 0.4769 0.4904 0.0000
vt 0.5096 0.4769 0.0000
vt 0.5177 0.4823 0.0000
vt 0.5231 0.4904 0.0000
vt 0.5250 0.5000 0.0000
vt 0.5231 0.5096 0.0000
vt 0.5177 0.5177 0.0000
vt 0.5096 0.5231 0.0000
vt 0.5000 0.5250 0.0000
vt 0.4750 0.5000 0.0000
vt 0.4769 0.5096 0.0000
vt 0.4823 0.5177 0.0000
vt 0.4904 0.5231 0.0000
vt 0.5116 0.5221 0.0000
vt 0.5166 0.5187 0.0000
vt 0.5206 0.5142 0.0000
vt 0.5234 0.5089 0.0000
vt 0.5248 0.5030 0.0000
vt 0.5248 0.4970 0.0000
vt 0.5234 0.4911 0.0000
vt 0.5206 0.4858 0.0000
vt 0.5060 0.5243 0.0000
vt 0.4884 0.5221 0.0000
vt 0.5166 0.4813 0.0000
vt 0.5116 0.4779 0.0000
vt 0.5060 0.4757 0.0000
vt 0.4940 0.4757 0.0000
vt 0.4884 0.4779 0.0000
vt 0.4834 0.4813 0.0000
vt 0.4794 0.4858 0.0000
vt 0.4766 0.4911 0.0000
vt 0.4752 0.4970 0.0000
vt 0.4752 0.5030 0.0000
vt 0.4766 0.5089 0.0000
vt 0.4794 0.5142 0.0000
vt 0.4834 0.5187 0.0000
vt 0.4940 0.5243 0.0000
vt 0.0997 0.6650 0.0000
vt 0.1133 0.6514 0.0000
vt 0.0671 0.6323 0.0000
vt 0.0671 0.6514 0.0000
vt 0.0806 0.6188 0.0000
vt 0.0997 0.6188 0.0000
vt 0.1133 0.6323 0.0000
vt 0.0806 0.6650 0.0000
vt 0.0966 0.6660 0.0000
vt 0.1027 0.6635 0.0000
vt 0.0837 0.6660 0.0000
vt 0.1118 0.6544 0.0000
vt 0.1143 0.6483 0.0000
vt 0.1143 0.6354 0.0000
vt 0.1118 0.6294 0.0000
vt 0.1027 0.6202 0.0000
vt 0.0966 0.6177 0.0000
vt 0.0837 0.6177 0.0000
vt 0.0777 0.6202 0.0000
vt 0.0685 0.6294 0.0000
vt 0.0660 0.6354 0.0000
vt 0.0660 0.6483 0.0000
vt 0.0685 0.6544 0.0000
vt 0.0777 0.6635 0.0000
vt 0.8638 0.2517 0.0000
vt 0.9138 0.2517 0.0000
vt 0.9138 0.3017 0.0000
vt 0.8638 0.3017 0.0000
vt 0.7164 0.3532 0.0000
vt 0.9882 0.3532 0.0000
vt 0.9882 0.7155 0.0000
vt 0.7164 0.7155 0.0000
vt 0.1139 0.6496 0.0000
vt 0.1049 0.6216 0.0000
vt 0.0755 0.6216 0.0000
vt 0.0664 0.6496 0.0000
vt 0.7514 0.8010 0.0000
vt 0.8014 0.8010 0.0000
vt 0.8014 0.8510 0.0000
vt 0.7514 0.8510 0.0000
vt 0.5754 0.9820 0.0000
vt 0.5754 0.7446 0.0000
vt 0.9908 0.7446 0.0000
vt 0.9908 0.9820 0.0000
vt 0.5754 0.9853 0.0000
vt 0.5754 0.7479 0.0000
vt 0.9908 0.7479 0.0000
vt 0.9908 0.9853 0.0000
vt 0.5754 0.9841 0.0000
vt 0.5754 0.7467 0.0000
vt 0.9908 0.7467 0.0000
vt 0.9908 0.9841 0.0000
vt 0.5754 0.9845 0.0000
vt 0.5754 0.7471 0.0000
vt 0.9908 0.7471 0.0000
vt 0.9908 0.9845 0.0000
vt 0.5754 0.9833 0.0000
vt 0.5754 0.7459 0.0000
vt 0.9908 0.7459 0.0000
vt 0.9908 0.9833 0.0000
vt 0.5740 0.9860 0.0000
vt 0.5740 0.7486 0.0000
vt 0.9894 0.7486 0.0000
vt 0.9894 0.9860 0.0000
vt 0.5743 0.9820 0.0000
vt 0.5743 0.7446 0.0000
vt 0.9897 0.7446 0.0000
vt 0.9897 0.9820 0.0000
vt 0.5743 0.9853 0.0000
vt 0.5743 0.7479 0.0000
vt 0.9897 0.7479 0.0000
vt 0.9897 0.9853 0.0000
vt 0.5743 0.9841 0.0000
vt 0.5743 0.7467 0.0000
vt 0.9897 0.7467 0.0000
vt 0.9897 0.9841 0.0000
vt 0.5743 0.9845 0.0000
vt 0.5743 0.7471 0.0000
vt 0.9897 0.7471 0.0000
vt 0.9897 0.9845 0.0000
vt 0.5743 0.9833 0.0000
vt 0.5743 0.7459 0.0000
vt 0.9897 0.7459 0.0000
vt 0.9897 0.9833 0.0000
vt 0.5750 0.9865 0.0000
vt 0.5750 0.7488 0.0000
vt 0.9910 0.7488 0.0000
vt 0.9910 0.9865 0.0000
# 144 texture coords

g Building_Sky_big_color01
usemtl Building_Sky_big_color01
s 1
f 1/1/1 2/2/1 3/3/1 4/4/1 
f 5/1/1 1/2/1 4/3/1 6/4/1 
f 7/5/1 8/6/1 2/7/1 1/8/1 
s 2
f 2/1/2 9/2/2 10/3/2 3/4/2 
s 4
f 4/5/3 3/6/3 10/7/3 11/8/3 
s 1
f 12/1/1 5/2/1 6/3/1 13/4/1 
f 14/5/1 7/6/1 1/7/1 5/8/1 
s 4
f 6/5/4 4/6/3 11/7/3 15/8/4 
s 1
f 8/1/1 7/2/1 16/3/1 17/4/1 
s 2
f 8/5/2 18/6/2 9/7/2 2/8/2 
s 1
f 9/1/5 19/2/5 11/3/5 10/4/5 
s 2
f 20/1/6 12/2/6 13/3/6 21/4/6 
s 1
f 22/5/1 14/6/1 5/7/1 12/8/1 
s 4
f 13/5/4 6/6/4 15/7/4 21/8/4 
s 1
f 7/1/1 14/2/1 23/3/1 16/4/1 
s 4
f 11/9/3 24/10/3 25/11/3 26/12/3 
f 15/13/4 11/9/3 26/12/3 27/14/3 
f 15/13/4 27/14/3 28/15/3 29/16/3 
s 2
f 18/1/2 8/2/2 17/3/2 30/4/2 
s 4
f 17/5/4 16/6/4 31/7/4 32/8/4 
s 1
f 33/17/5 34/18/5 18/19/5 35/20/5 
f 36/21/5 33/17/5 35/20/5 37/22/7 
f 38/23/5 37/22/7 35/20/5 39/24/5 
f 40/25/5 39/24/5 35/20/5 41/26/5 
f 42/27/5 41/26/5 35/20/5 43/28/7 
f 35/20/5 19/29/5 44/30/5 45/31/5 
f 35/20/5 45/31/5 46/32/5 43/28/7 
f 47/33/7 46/34/5 45/35/5 48/36/5 
f 49/37/5 44/38/5 19/39/5 9/40/5 
f 48/36/5 49/37/5 9/40/5 47/33/7 
f 50/41/5 47/33/7 9/40/5 51/42/5 
f 9/40/5 18/43/5 34/44/5 52/45/5 
f 52/45/5 36/17/5 37/46/7 53/47/5 
f 9/40/5 52/45/5 53/47/5 54/48/7 
f 54/48/7 38/49/5 39/50/5 55/51/5 
f 9/40/5 54/48/7 55/51/5 56/52/5 
f 56/52/5 40/53/5 41/54/5 57/55/5 
f 9/40/5 56/52/5 57/55/5 51/42/5 
f 43/28/7 50/41/5 51/42/5 42/56/5 
s 2
f 11/1/8 19/2/8 58/3/8 24/4/8 
s 1
f 59/1/5 20/2/5 21/3/5 15/4/5 
s 2
f 60/5/6 22/6/6 12/7/6 20/8/6 
s 1
f 14/1/1 22/2/1 61/3/1 23/4/1 
s off
f 16/5/3 23/6/3 62/7/3 31/8/3 
s 2
f 59/1/6 15/2/6 29/3/6 63/4/6 
s 1
f 58/1/7 64/2/7 25/3/7 24/4/7 
f 65/1/5 63/2/7 29/3/7 28/4/7 
f 35/1/5 18/2/5 30/3/5 66/4/5 
s 4
f 30/5/4 17/6/4 32/7/4 67/8/4 
s 1
f 32/5/1 31/6/1 68/7/1 69/8/1 
s 2
f 19/1/8 35/2/8 70/3/8 58/4/8 
s 1
f 71/22/5 72/21/5 73/17/5 60/18/5 
f 74/23/5 71/22/5 60/18/5 75/24/7 
f 76/25/5 75/24/7 60/18/5 77/26/5 
f 78/27/5 77/26/5 60/18/5 79/28/5 
f 60/18/5 20/19/5 80/20/5 81/29/5 
f 60/18/5 81/29/5 82/30/5 83/31/7 
f 60/18/5 83/31/7 84/32/5 79/28/5 
f 85/41/5 80/33/5 20/34/5 59/35/5 
f 86/28/5 85/41/5 59/35/5 87/55/7 
f 59/35/5 73/36/5 72/37/5 88/38/5 
f 88/38/5 74/39/5 75/40/7 89/43/5 
f 59/35/5 88/38/5 89/43/5 90/44/7 
f 90/44/7 76/45/5 77/17/5 91/46/5 
f 59/35/5 90/44/7 91/46/5 92/47/5 
f 92/47/5 78/48/5 79/49/5 93/50/5 
f 59/35/5 92/47/5 93/50/5 94/51/5 
f 94/51/5 84/52/5 83/53/7 95/54/5 
f 59/35/5 94/51/5 95/54/5 87/55/7 
f 86/28/5 87/55/7 82/42/5 81/56/5 
s 2
f 22/1/6 60/2/6 96/3/6 61/4/6 
s 4
f 23/5/3 61/6/3 97/7/3 62/8/3 
s 1
f 31/5/1 62/6/1 98/7/1 68/8/1 
s 2
f 73/1/6 59/2/6 63/3/6 99/4/6 
s 1
f 100/57/5 101/9/9 102/58/7 103/10/7 
f 104/59/7 105/15/5 70/60/5 99/16/7 
f 106/14/7 104/59/7 99/16/7 107/61/10 
f 108/12/5 107/61/10 99/16/7 109/62/5 
f 110/11/5 109/62/5 99/16/7 111/63/5 
f 103/10/7 111/63/5 99/16/7 100/57/5 
f 65/13/5 100/57/5 99/16/7 63/64/7 
f 58/65/7 70/66/5 105/9/5 112/67/7 
f 113/68/5 106/69/7 107/10/10 114/70/5 
f 115/71/10 108/11/5 109/72/5 116/73/5 
f 117/12/5 110/74/5 111/75/5 118/14/5 
f 119/76/5 103/77/7 102/15/7 120/78/5 
f 121/79/10 101/16/9 100/80/5 112/67/7 
f 120/78/5 121/79/10 112/67/7 119/76/5 
f 118/14/5 119/76/5 112/67/7 117/12/5 
f 116/73/5 117/12/5 112/67/7 115/71/10 
f 114/70/5 115/71/10 112/67/7 113/68/5 
f 105/9/5 113/68/5 112/67/7 
f 64/13/7 58/65/7 112/67/7 
s 2
f 70/1/8 35/2/8 66/3/8 122/4/8 
s 4
f 66/5/4 30/6/4 67/7/4 123/8/4 
s off
f 67/5/2 32/6/2 69/7/2 124/8/2 
f 69/5/11 68/6/11 125/7/11 126/8/11 
s 1
f 60/1/5 73/2/5 127/3/5 96/4/5 
s 4
f 61/5/3 96/6/3 128/7/3 97/8/3 
s 1
f 62/5/1 97/6/1 129/7/1 98/8/1 
s off
f 68/5/11 98/6/11 130/7/11 125/8/11 
s 2
f 73/1/6 99/2/6 131/3/6 127/4/6 
s 1
f 99/1/7 70/2/5 122/3/7 131/4/7 
s 4
f 122/5/3 66/6/4 123/7/4 132/8/3 
s off
f 123/5/5 67/6/5 124/7/5 133/8/5 
f 124/5/11 69/6/11 126/7/11 134/8/11 
s 1
f 126/5/5 125/6/5 135/7/5 136/8/5 
s 4
f 96/5/3 127/6/3 137/7/3 128/8/3 
s off
f 97/5/6 128/6/6 138/7/6 129/8/6 
f 98/5/12 129/6/12 139/7/12 130/8/12 
s 1
f 125/5/5 130/6/5 140/7/5 135/8/5 
s 4
f 127/5/3 131/6/3 141/7/3 137/8/3 
s off
f 131/5/3 122/6/3 132/7/3 141/8/3 
f 132/5/8 123/6/8 133/7/8 142/8/8 
f 133/5/13 124/6/13 134/7/13 143/8/13 
f 134/5/6 126/6/6 136/7/6 144/8/6 
s 2
f 145/81/11 144/82/11 136/83/11 135/84/11 
s off
f 128/5/5 137/6/5 146/7/5 138/8/5 
f 129/5/11 138/6/11 147/7/11 139/8/11 
s 1
f 130/5/5 139/6/5 148/7/5 140/8/5 
s 2
f 149/81/12 145/82/11 135/83/11 140/84/12 
s off
f 137/5/6 141/6/6 150/7/6 146/8/6 
f 141/5/7 132/6/7 142/7/7 150/8/7 
s 1
f 142/5/11 133/6/11 143/7/11 151/8/11 
s off
f 143/5/1 134/6/1 144/7/1 145/8/1 
f 138/5/14 146/6/14 152/7/14 147/8/14 
f 139/5/8 147/6/8 153/7/8 148/8/8 
s 2
f 153/81/12 149/82/12 140/83/12 148/84/12 
f 145/81/11 149/82/12 154/83/11 155/84/11 
s 1
f 146/5/11 150/6/11 156/7/11 152/8/11 
f 150/5/11 142/6/11 151/7/11 156/8/11 
s off
f 151/5/6 143/6/6 145/7/6 155/8/6 
f 147/5/1 152/6/1 149/7/1 153/8/1 
f 152/5/8 156/6/8 154/7/8 149/8/8 
f 156/5/1 151/6/1 155/7/1 154/8/1 
f 27/85/7 26/86/7 157/87/7 158/88/7 
f 100/13/8 65/89/8 28/90/8 27/91/8 
f 100/13/8 27/91/8 158/92/8 
f 112/1/3 100/2/3 158/3/3 157/4/3 
f 157/13/6 26/89/6 25/90/6 64/91/6 
f 157/13/6 64/91/6 112/92/6 
f 159/93/7 160/94/7 161/95/7 162/96/7 
f 104/1/8 106/2/8 160/3/8 159/4/8 
f 105/1/3 104/2/3 159/3/3 162/4/3 
f 113/1/6 105/2/6 162/3/6 161/4/6 
f 106/1/11 113/2/11 161/3/11 160/4/11 
f 163/93/10 164/94/10 165/95/10 166/96/10 
f 107/1/8 108/2/8 164/3/8 163/4/8 
f 114/1/3 107/2/3 163/3/3 166/4/3 
f 115/1/6 114/2/6 166/3/6 165/4/6 
f 108/1/11 115/2/11 165/3/11 164/4/11 
f 167/93/7 168/94/7 169/95/7 170/96/7 
f 109/1/8 110/2/8 168/3/8 167/4/8 
f 116/1/3 109/2/3 167/3/3 170/4/3 
f 117/1/6 116/2/6 170/3/6 169/4/6 
f 110/1/11 117/2/11 169/3/11 168/4/11 
f 171/93/7 172/94/7 173/95/7 174/96/7 
f 111/1/8 103/2/8 172/3/8 171/4/8 
f 118/1/3 111/2/3 171/3/3 174/4/3 
f 119/1/6 118/2/6 174/3/6 173/4/6 
f 103/1/11 119/2/11 173/3/11 172/4/11 
f 175/93/10 176/94/10 177/95/10 178/96/10 
f 102/1/8 101/2/8 176/3/8 175/4/8 
f 120/1/3 102/2/3 175/3/3 178/4/3 
f 121/1/6 120/2/6 178/3/6 177/4/6 
f 101/1/11 121/2/11 177/3/11 176/4/11 
f 179/97/5 180/98/5 181/99/5 182/100/5 
f 71/5/2 74/6/2 180/7/2 179/8/2 
f 72/5/3 71/6/3 179/7/3 182/8/3 
f 88/5/6 72/6/6 182/7/6 181/8/6 
f 74/5/13 88/6/13 181/7/13 180/8/13 
f 183/101/9 184/102/9 185/103/9 186/104/9 
f 75/5/15 76/6/15 184/7/15 183/8/15 
f 89/5/16 75/6/16 183/7/16 186/8/16 
f 90/5/6 89/6/6 186/7/6 185/8/6 
f 76/5/11 90/6/11 185/7/11 184/8/11 
f 187/105/5 188/106/5 189/107/5 190/108/5 
f 77/5/2 78/6/2 188/7/2 187/8/2 
f 91/5/3 77/6/3 187/7/3 190/8/3 
f 92/5/6 91/6/6 190/7/6 189/8/6 
f 78/5/11 92/6/11 189/7/11 188/8/11 
f 191/109/5 192/110/5 193/111/5 194/112/5 
f 79/5/2 84/6/2 192/7/2 191/8/2 
f 93/5/3 79/6/3 191/7/3 194/8/3 
f 94/5/6 93/6/6 194/7/6 193/8/6 
f 84/5/11 94/6/11 193/7/11 192/8/11 
f 195/113/9 196/114/9 197/115/9 198/116/9 
f 83/5/15 82/6/15 196/7/15 195/8/15 
f 95/5/16 83/6/16 195/7/16 198/8/16 
f 87/5/6 95/6/6 198/7/6 197/8/6 
f 82/5/13 87/6/13 197/7/13 196/8/13 
f 199/117/5 200/118/5 201/119/5 202/120/5 
f 81/5/2 80/6/2 200/7/2 199/8/2 
f 86/5/16 81/6/16 199/7/16 202/8/16 
f 85/5/6 86/6/6 202/7/6 201/8/6 
f 80/5/11 85/6/11 201/7/11 200/8/11 
f 203/121/5 204/122/5 205/123/5 206/124/5 
f 33/5/8 36/6/8 204/7/8 203/8/8 
f 34/5/3 33/6/3 203/7/3 206/8/3 
f 52/5/6 34/6/6 206/7/6 205/8/6 
f 36/5/13 52/6/13 205/7/13 204/8/13 
f 207/125/9 208/126/9 209/127/9 210/128/9 
f 37/5/8 38/6/8 208/7/8 207/8/8 
f 53/5/16 37/6/16 207/7/16 210/8/16 
f 54/5/17 53/6/17 210/7/17 209/8/17 
f 38/5/11 54/6/11 209/7/11 208/8/11 
f 211/129/5 212/130/5 213/131/5 214/132/5 
f 39/5/8 40/6/8 212/7/8 211/8/8 
f 55/5/3 39/6/3 211/7/3 214/8/3 
f 56/5/6 55/6/6 214/7/6 213/8/6 
f 40/5/11 56/6/11 213/7/11 212/8/11 
f 215/133/5 216/134/5 217/135/5 218/136/5 
f 41/5/8 42/6/8 216/7/8 215/8/8 
f 57/5/3 41/6/3 215/7/3 218/8/3 
f 51/5/6 57/6/6 218/7/6 217/8/6 
f 42/5/11 51/6/11 217/7/11 216/8/11 
f 219/137/9 220/138/9 221/139/9 222/140/9 
f 43/5/8 46/6/8 220/7/8 219/8/8 
f 50/5/16 43/6/16 219/7/16 222/8/16 
f 47/5/17 50/6/17 222/7/17 221/8/17 
f 46/5/13 47/6/13 221/7/13 220/8/13 
f 223/141/5 224/142/5 225/143/5 226/144/5 
f 45/5/8 44/6/8 224/7/8 223/8/8 
f 48/5/3 45/6/3 223/7/3 226/8/3 
f 49/5/6 48/6/6 226/7/6 225/8/6 
f 44/5/11 49/6/11 225/7/11 224/8/11 
# 222 polygons - 4 triangles

